<svg xmlns="http://www.w3.org/2000/svg" viewBox="0 0 500 500"><g id="freepik--background-simple--inject-94"><path d="M444.86,138.19s-39.58-55.81-153.13-59S167.14,131,138,147.76s-88.9,12.76-109.67,59.8S6.22,389.36,93.82,417.27s122.64-31.9,170.66-25.52,92.79,41.46,159,32.69,74-160.27,63.59-207.31S444.86,138.19,444.86,138.19Z" style="fill:#FF6601"></path><path d="M444.86,138.19s-39.58-55.81-153.13-59S167.14,131,138,147.76s-88.9,12.76-109.67,59.8S6.22,389.36,93.82,417.27s122.64-31.9,170.66-25.52,92.79,41.46,159,32.69,74-160.27,63.59-207.31S444.86,138.19,444.86,138.19Z" style="fill:#fff;opacity:0.7000000000000001"></path><path d="M140.71,325.91c0,.1,5.19-3.79,5.49-4.07,3.43-3.27,8.15-11.61,5.85-16.39a6.29,6.29,0,0,0-9.05-2.37c-3.2,2-4.62,6.36-5,9.89C137.63,317.1,140.71,325.91,140.71,325.91Z" style="fill:#fff"></path><path d="M68.19,265.59c2,3.68,9.37,9.32,9.38,9.32s2.23-6,2.33-6.42c1.06-4.62.4-14.18-4.17-16.9a6.28,6.28,0,0,0-8.85,3C65.29,258,66.53,262.46,68.19,265.59Z" style="fill:#fff"></path><path d="M53.9,288.73c2.73,2.91,10.74,6.2,11.38,6.46a111.71,111.71,0,0,0-4.74,14.07c-.76,2.79-1.43,5.62-2.07,8.46.1-1.34.18-2.54.17-2.71-.19-4.74-3.36-13.78-8.48-15.2a6.29,6.29,0,0,0-7.74,5.25c-.63,3.7,1.74,7.66,4.17,10.25s9.23,5.56,11,6.32c-.24,1.09-.48,2.18-.71,3.28-1.1,5.25-2.18,10.5-3.39,15.61-.43,1.81-.92,3.57-1.4,5.33.09-1.19.15-2.2.15-2.35-.2-4.74-3.36-13.78-8.48-15.2a6.28,6.28,0,0,0-7.74,5.25c-.63,3.7,1.74,7.66,4.16,10.24s8.58,5.28,10.72,6.19c-.55,1.79-1.09,3.58-1.7,5.29-.44,1.16-.79,2.3-1.3,3.44l-1.43,3.38c-1,2.12-2,4.31-3,6.34-.69,1.43-1.38,2.77-2.07,4.13.45-1.79,1.25-5.31,1.28-5.62.52-4.71-1.23-14.13-6.08-16.31a6.28,6.28,0,0,0-8.44,4c-1.19,3.56.55,7.84,2.56,10.76C33,368.62,40.07,373,41,373.49c-1.15,2.24-2.28,4.4-3.39,6.43-2.31,4.24-4.47,8-6.37,11.18l2.72,2.16c1.9-3.35,4.1-7.34,6.43-11.87,1.17-2.27,2.39-4.71,3.61-7.24A69.47,69.47,0,0,0,51.77,376c.29,4,3.6,11,4,11.94-2.19,1.23-4.34,2.41-6.38,3.49-4,2.13-7.66,4-10.87,5.51l2.93,2.34c2.85-1.48,6-3.17,9.45-5.09,2.23-1.24,4.59-2.61,7-4.05.65.79,6,7.18,9.53,8.88,3.19,1.54,7.69,2.61,11,.9a6.28,6.28,0,0,0,2.7-8.95c-2.89-4.46-12.46-4.77-17-3.54-.27.07-3.12,1.19-4.9,1.92,1-.59,1.94-1.15,2.95-1.77,2-1.21,3.94-2.48,6-3.84l3-2.1c1-.68,2-1.52,3-2.29,2.33-1.82,4.59-3.78,6.84-5.81,1.06,1.74,4.94,7.87,7.88,9.89s7.19,3.75,10.75,2.56a6.28,6.28,0,0,0,4-8.44c-2.18-4.85-11.59-6.6-16.31-6.08-.29,0-3.63.79-5.46,1.24,1.34-1.23,2.68-2.45,4-3.73,3.79-3.72,7.51-7.6,11.24-11.45l3.45-3.51c.37.62,4.82,8,8.11,10.27,2.92,2,7.2,3.75,10.75,2.57a6.28,6.28,0,0,0,4-8.45c-2.17-4.84-11.59-6.6-16.31-6.08-.35,0-5.16,1.14-6.36,1.48,2.53-2.57,5.07-5.11,7.68-7.52a113.58,113.58,0,0,1,11.13-9.07c.18.29,4.79,8,8.15,10.34,2.92,2,7.2,3.75,10.76,2.56a6.28,6.28,0,0,0,4-8.44c-2.18-4.85-11.59-6.6-16.31-6.08-.31,0-4,.87-5.7,1.3-.07-.15-.06-.12-.12-.27a80.81,80.81,0,0,1,12.65-7c2.42-1.1,4.79-2,7.12-2.85.71,1.53,4,8.48,6.83,10.89s6.75,4.52,10.41,3.74a6.3,6.3,0,0,0,4.93-8c-1.64-5.05-10.8-7.83-15.55-7.83-.26,0-2.88.29-4.78.53,1-.36,2.14-.75,3.15-1.08,3.83-1.23,7.4-2.13,10.58-2.9,1.8-.42,3.45-.76,5-1.07,1.48,1.13,7.5,5.64,11,6.48s8.06.9,10.95-1.49a6.29,6.29,0,0,0,.71-9.33c-3.78-3.73-13.2-2-17.41.21-.36.19-5.71,3.81-5.63,3.87l.09.06c-1.49.27-3.08.57-4.82.94-3.19.7-6.8,1.52-10.66,2.67a109.85,109.85,0,0,0-12.29,4.33,81.21,81.21,0,0,0-12.93,6.74l-.14.1c1-1.2,3.65-4.65,3.82-4.94,2.45-4.06,4.8-13.35,1.32-17.36a6.3,6.3,0,0,0-9.36.12c-2.57,2.73-2.77,7.34-2.18,10.84.68,3.93,5.55,11.1,5.94,11.67a110.4,110.4,0,0,0-11.72,9.12c-2.17,1.91-4.29,3.9-6.39,5.92.82-1.07,1.55-2,1.63-2.17,2.45-4.06,4.8-13.35,1.32-17.36a6.3,6.3,0,0,0-9.36.11C92.2,334.41,92,339,92.59,342.51s4.63,9.74,5.72,11.37c-.8.78-1.61,1.55-2.4,2.34-3.82,3.78-7.61,7.56-11.45,11.16-1.35,1.26-2.72,2.46-4.1,3.67.73-.95,1.34-1.75,1.42-1.88,2.45-4.07,4.8-13.35,1.31-17.36a6.28,6.28,0,0,0-9.35.11c-2.57,2.74-2.77,7.35-2.18,10.84s4.25,9.13,5.53,11.07c-1.44,1.19-2.88,2.39-4.34,3.48-1,.72-1.93,1.48-3,2.15l-3.06,2c-2,1.22-4,2.49-6,3.64-1.37.8-2.68,1.54-4,2.29,1.36-1.25,4-3.74,4.17-4a24.38,24.38,0,0,0,4.83-11.33,7.06,7.06,0,0,0,.8-1.14,6.29,6.29,0,0,0-2.7-9c-4.87-2.12-13,2.9-16.16,6.45-.19.21-1.94,2.71-3,4.31.5-1,1-2,1.48-3.1,1-2.12,1.92-4.25,2.93-6.55.45-1.12.9-2.26,1.35-3.41s.84-2.38,1.27-3.58c.93-2.8,1.74-5.69,2.5-8.62,1.85.87,8.46,3.84,12,3.9s8.07-.84,10.39-3.79a6.28,6.28,0,0,0-1.31-9.26c-4.49-2.84-13.31.89-16.95,3.93-.23.19-2.6,2.66-3.87,4,.43-1.76.88-3.52,1.27-5.31,1.11-5.19,2.07-10.48,3.06-15.75.3-1.62.62-3.22.93-4.83.66.32,8.45,4,12.43,4.09,3.55.07,8.08-.84,10.39-3.79a6.28,6.28,0,0,0-1.31-9.26c-4.49-2.84-13.31.89-17,3.93-.28.22-3.68,3.79-4.5,4.74.69-3.54,1.41-7.07,2.27-10.51a110.63,110.63,0,0,1,4.28-13.71c.3.15,8.41,4.06,12.5,4.13,3.54.06,8.07-.84,10.38-3.79a6.29,6.29,0,0,0-1.3-9.27c-4.49-2.84-13.32.89-17,3.93-.24.2-2.84,2.92-4,4.23l-.25-.16a81.07,81.07,0,0,1,6.71-12.78c1.41-2.25,2.89-4.32,4.37-6.3,1.43.88,8,4.84,11.71,5.31,3.51.45,8.12,0,10.74-2.63a6.28,6.28,0,0,0-.28-9.35c-4.15-3.32-13.33-.58-17.29,2-.21.14-2.24,1.84-3.69,3.09.68-.89,1.36-1.81,2-2.65,2.51-3.14,5-5.86,7.22-8.25,1.28-1.35,2.46-2.54,3.57-3.65,1.87.13,9.37.56,12.78-.68s7.23-3.7,8.32-7.29a6.29,6.29,0,0,0-4.56-8.17c-5.21-1-12.09,5.63-14.4,9.78-.19.36-2.66,6.32-2.56,6.33h.11c-1.1,1-2.26,2.17-3.5,3.43-2.28,2.35-4.84,5-7.42,8.12a110.83,110.83,0,0,0-7.87,10.39,81.63,81.63,0,0,0-7.06,12.75,1,1,0,0,0-.06.16c.16-1.55.47-5.89.46-6.23-.2-4.74-3.36-13.78-8.48-15.2a6.29,6.29,0,0,0-7.74,5.26C49.1,282.18,51.47,286.15,53.9,288.73Z" style="fill:#fff"></path><path d="M68.19,265.59c2,3.68,9.37,9.32,9.38,9.32s2.23-6,2.33-6.42c1.06-4.62.4-14.18-4.17-16.9a6.28,6.28,0,0,0-8.85,3C65.29,258,66.53,262.46,68.19,265.59Z" style="fill:#fff;opacity:0.30000000000000004"></path><path d="M140.71,325.91c0,.1,5.19-3.79,5.49-4.07,3.43-3.27,8.15-11.61,5.85-16.39a6.29,6.29,0,0,0-9.05-2.37c-3.2,2-4.62,6.36-5,9.89C137.63,317.1,140.71,325.91,140.71,325.91Z" style="fill:#fff;opacity:0.30000000000000004"></path><path d="M53.9,288.73c2.73,2.91,10.74,6.2,11.38,6.46a111.71,111.71,0,0,0-4.74,14.07c-.76,2.79-1.43,5.62-2.07,8.46.1-1.34.18-2.54.17-2.71-.19-4.74-3.36-13.78-8.48-15.2a6.29,6.29,0,0,0-7.74,5.25c-.63,3.7,1.74,7.66,4.17,10.25s9.23,5.56,11,6.32c-.24,1.09-.48,2.18-.71,3.28-1.1,5.25-2.18,10.5-3.39,15.61-.43,1.81-.92,3.57-1.4,5.33.09-1.19.15-2.2.15-2.35-.2-4.74-3.36-13.78-8.48-15.2a6.28,6.28,0,0,0-7.74,5.25c-.63,3.7,1.74,7.66,4.16,10.24s8.58,5.28,10.72,6.19c-.55,1.79-1.09,3.58-1.7,5.29-.44,1.16-.79,2.3-1.3,3.44l-1.43,3.38c-1,2.12-2,4.31-3,6.34-.69,1.43-1.38,2.77-2.07,4.13.45-1.79,1.25-5.31,1.28-5.62.52-4.71-1.23-14.13-6.08-16.31a6.28,6.28,0,0,0-8.44,4c-1.19,3.56.55,7.84,2.56,10.76C33,368.62,40.07,373,41,373.49c-1.15,2.24-2.28,4.4-3.39,6.43-2.31,4.24-4.47,8-6.37,11.18l2.72,2.16c1.9-3.35,4.1-7.34,6.43-11.87,1.17-2.27,2.39-4.71,3.61-7.24A69.47,69.47,0,0,0,51.77,376c.29,4,3.6,11,4,11.94-2.19,1.23-4.34,2.41-6.38,3.49-4,2.13-7.66,4-10.87,5.51l2.93,2.34c2.85-1.48,6-3.17,9.45-5.09,2.23-1.24,4.59-2.61,7-4.05.65.79,6,7.18,9.53,8.88,3.19,1.54,7.69,2.61,11,.9a6.28,6.28,0,0,0,2.7-8.95c-2.89-4.46-12.46-4.77-17-3.54-.27.07-3.12,1.19-4.9,1.92,1-.59,1.94-1.15,2.95-1.77,2-1.21,3.94-2.48,6-3.84l3-2.1c1-.68,2-1.52,3-2.29,2.33-1.82,4.59-3.78,6.84-5.81,1.06,1.74,4.94,7.87,7.88,9.89s7.19,3.75,10.75,2.56a6.28,6.28,0,0,0,4-8.44c-2.18-4.85-11.59-6.6-16.31-6.08-.29,0-3.63.79-5.46,1.24,1.34-1.23,2.68-2.45,4-3.73,3.79-3.72,7.51-7.6,11.24-11.45l3.45-3.51c.37.62,4.82,8,8.11,10.27,2.92,2,7.2,3.75,10.75,2.57a6.28,6.28,0,0,0,4-8.45c-2.17-4.84-11.59-6.6-16.31-6.08-.35,0-5.16,1.14-6.36,1.48,2.53-2.57,5.07-5.11,7.68-7.52a113.58,113.58,0,0,1,11.13-9.07c.18.29,4.79,8,8.15,10.34,2.92,2,7.2,3.75,10.76,2.56a6.28,6.28,0,0,0,4-8.44c-2.18-4.85-11.59-6.6-16.31-6.08-.31,0-4,.87-5.7,1.3-.07-.15-.06-.12-.12-.27a80.81,80.81,0,0,1,12.65-7c2.42-1.1,4.79-2,7.12-2.85.71,1.53,4,8.48,6.83,10.89s6.75,4.52,10.41,3.74a6.3,6.3,0,0,0,4.93-8c-1.64-5.05-10.8-7.83-15.55-7.83-.26,0-2.88.29-4.78.53,1-.36,2.14-.75,3.15-1.08,3.83-1.23,7.4-2.13,10.58-2.9,1.8-.42,3.45-.76,5-1.07,1.48,1.13,7.5,5.64,11,6.48s8.06.9,10.95-1.49a6.29,6.29,0,0,0,.71-9.33c-3.78-3.73-13.2-2-17.41.21-.36.19-5.71,3.81-5.63,3.87l.09.06c-1.49.27-3.08.57-4.82.94-3.19.7-6.8,1.52-10.66,2.67a109.85,109.85,0,0,0-12.29,4.33,81.21,81.21,0,0,0-12.93,6.74l-.14.1c1-1.2,3.65-4.65,3.82-4.94,2.45-4.06,4.8-13.35,1.32-17.36a6.3,6.3,0,0,0-9.36.12c-2.57,2.73-2.77,7.34-2.18,10.84.68,3.93,5.55,11.1,5.94,11.67a110.4,110.4,0,0,0-11.72,9.12c-2.17,1.91-4.29,3.9-6.39,5.92.82-1.07,1.55-2,1.63-2.17,2.45-4.06,4.8-13.35,1.32-17.36a6.3,6.3,0,0,0-9.36.11C92.2,334.41,92,339,92.59,342.51s4.63,9.74,5.72,11.37c-.8.78-1.61,1.55-2.4,2.34-3.82,3.78-7.61,7.56-11.45,11.16-1.35,1.26-2.72,2.46-4.1,3.67.73-.95,1.34-1.75,1.42-1.88,2.45-4.07,4.8-13.35,1.31-17.36a6.28,6.28,0,0,0-9.35.11c-2.57,2.74-2.77,7.35-2.18,10.84s4.25,9.13,5.53,11.07c-1.44,1.19-2.88,2.39-4.34,3.48-1,.72-1.93,1.48-3,2.15l-3.06,2c-2,1.22-4,2.49-6,3.64-1.37.8-2.68,1.54-4,2.29,1.36-1.25,4-3.74,4.17-4a24.38,24.38,0,0,0,4.83-11.33,7.06,7.06,0,0,0,.8-1.14,6.29,6.29,0,0,0-2.7-9c-4.87-2.12-13,2.9-16.16,6.45-.19.21-1.94,2.71-3,4.31.5-1,1-2,1.48-3.1,1-2.12,1.92-4.25,2.93-6.55.45-1.12.9-2.26,1.35-3.41s.84-2.38,1.27-3.58c.93-2.8,1.74-5.69,2.5-8.62,1.85.87,8.46,3.84,12,3.9s8.07-.84,10.39-3.79a6.28,6.28,0,0,0-1.31-9.26c-4.49-2.84-13.31.89-16.95,3.93-.23.19-2.6,2.66-3.87,4,.43-1.76.88-3.52,1.27-5.31,1.11-5.19,2.07-10.48,3.06-15.75.3-1.62.62-3.22.93-4.83.66.32,8.45,4,12.43,4.09,3.55.07,8.08-.84,10.39-3.79a6.28,6.28,0,0,0-1.31-9.26c-4.49-2.84-13.31.89-17,3.93-.28.22-3.68,3.79-4.5,4.74.69-3.54,1.41-7.07,2.27-10.51a110.63,110.63,0,0,1,4.28-13.71c.3.15,8.41,4.06,12.5,4.13,3.54.06,8.07-.84,10.38-3.79a6.29,6.29,0,0,0-1.3-9.27c-4.49-2.84-13.32.89-17,3.93-.24.2-2.84,2.92-4,4.23l-.25-.16a81.07,81.07,0,0,1,6.71-12.78c1.41-2.25,2.89-4.32,4.37-6.3,1.43.88,8,4.84,11.71,5.31,3.51.45,8.12,0,10.74-2.63a6.28,6.28,0,0,0-.28-9.35c-4.15-3.32-13.33-.58-17.29,2-.21.14-2.24,1.84-3.69,3.09.68-.89,1.36-1.81,2-2.65,2.51-3.14,5-5.86,7.22-8.25,1.28-1.35,2.46-2.54,3.57-3.65,1.87.13,9.37.56,12.78-.68s7.23-3.7,8.32-7.29a6.29,6.29,0,0,0-4.56-8.17c-5.21-1-12.09,5.63-14.4,9.78-.19.36-2.66,6.32-2.56,6.33h.11c-1.1,1-2.26,2.17-3.5,3.43-2.28,2.35-4.84,5-7.42,8.12a110.83,110.83,0,0,0-7.87,10.39,81.63,81.63,0,0,0-7.06,12.75,1,1,0,0,0-.06.16c.16-1.55.47-5.89.46-6.23-.2-4.74-3.36-13.78-8.48-15.2a6.29,6.29,0,0,0-7.74,5.26C49.1,282.18,51.47,286.15,53.9,288.73Z" style="fill:#fff;opacity:0.30000000000000004"></path><path d="M453.74,295.85c.1,0-.35-6.42-.42-6.82-.86-4.67-5.28-13.17-10.54-13.85a6.29,6.29,0,0,0-6.92,6.3c-.11,3.75,2.8,7.33,5.57,9.55C444.68,293.63,453.74,295.84,453.74,295.85Z" style="fill:#fff"></path><path d="M363.62,323.71c4.14.37,12.93-2.77,12.93-2.77s-3.83-5.16-4.11-5.46c-3.3-3.41-11.67-8.07-16.44-5.73a6.29,6.29,0,0,0-2.29,9.07C355.69,322,360.09,323.39,363.62,323.71Z" style="fill:#fff"></path><path d="M375.21,348.31c3.94-.7,11.07-5.62,11.63-6A111.71,111.71,0,0,0,396.05,354c1.92,2.15,3.92,4.26,6,6.35-1.07-.81-2-1.53-2.18-1.62-4.08-2.42-13.38-4.71-17.37-1.19a6.29,6.29,0,0,0,.18,9.35c2.76,2.55,7.37,2.72,10.86,2.1s9.7-4.7,11.32-5.8l2.36,2.38c3.8,3.79,7.62,7.56,11.24,11.36,1.28,1.35,2.49,2.71,3.7,4.08-.95-.73-1.76-1.33-1.89-1.4-4.08-2.43-13.38-4.71-17.37-1.2a6.3,6.3,0,0,0,.18,9.36c2.76,2.54,7.37,2.72,10.86,2.1s9.1-4.31,11-5.61c1.2,1.43,2.41,2.87,3.51,4.31.73,1,1.5,1.92,2.17,3l2.06,3c1.23,2,2.52,4,3.67,6,.81,1.36,1.56,2.67,2.32,4-1.25-1.35-3.77-3.94-4-4.14-3.67-3-12.52-6.67-17-3.8a6.29,6.29,0,0,0-1.24,9.27c2.34,2.93,6.88,3.81,10.42,3.72,3.9-.1,11.4-3.7,12.34-4.15,1.25,2.18,2.44,4.32,3.54,6.35,2.29,4.25,4.26,8.11,5.89,11.44l3.29-1.1c-1.77-3.43-3.91-7.44-6.43-11.86-1.26-2.23-2.65-4.58-4.1-7a67.4,67.4,0,0,0,5.81-5.54c3.51,1.94,11.21,3,12.2,3.14-.16,2.51-.34,4.95-.55,7.25-.4,4.52-.86,8.59-1.31,12.12l3.55-1.19c.32-3.19.64-6.77.9-10.68.17-2.55.31-5.28.42-8.08,1-.12,9.3-1.13,12.64-3.15,3-1.83,6.39-5,6.77-8.74a6.29,6.29,0,0,0-6-7.15c-5.31,0-10.8,7.84-12.26,12.35-.09.27-.71,3.26-1.06,5.16,0-1.15.09-2.26.12-3.44.07-2.33.07-4.66.08-7.17,0-1.21-.08-2.43-.12-3.67s-.18-2.51-.26-3.78c-.26-2.95-.67-5.92-1.14-8.9,2,.05,9.3.15,12.59-1.21s7.07-4,8-7.61a6.28,6.28,0,0,0-4.88-8c-5.25-.82-11.86,6.11-14,10.35-.14.26-1.32,3.48-1.94,5.25-.3-1.79-.59-3.58-.95-5.38-1.05-5.2-2.27-10.44-3.46-15.67-.37-1.6-.71-3.2-1.07-4.8.73,0,9.35.33,13-1.19,3.27-1.35,7.07-4,8-7.61a6.29,6.29,0,0,0-4.89-8c-5.25-.82-11.86,6.11-14,10.35-.16.32-1.86,4.94-2.24,6.14-.77-3.52-1.51-7-2.1-10.54a111.12,111.12,0,0,1-1.53-14.28c.34,0,9.33.37,13.11-1.19,3.27-1.35,7.07-4,8-7.61a6.3,6.3,0,0,0-4.89-8c-5.25-.82-11.86,6.12-14,10.35-.14.28-1.44,3.8-2,5.49l-.3-.05a80.57,80.57,0,0,1,1.08-14.39c.39-2.63.92-5.11,1.49-7.52,1.67.24,9.31,1.24,12.86.21,3.4-1,7.46-3.18,8.81-6.69a6.28,6.28,0,0,0-4-8.46c-5.13-1.39-12.46,4.77-15.05,8.75-.14.22-1.32,2.57-2.16,4.3.27-1.08.53-2.2.82-3.23,1.05-3.88,2.25-7.37,3.33-10.45.64-1.74,1.25-3.31,1.83-4.77,1.76-.62,8.82-3.21,11.45-5.71s5.15-6.27,4.73-10a6.29,6.29,0,0,0-7.43-5.69c-5.19,1.13-8.86,10-9.32,14.71,0,.4.07,6.86.16,6.83l.11,0c-.59,1.39-1.21,2.89-1.85,4.54-1.15,3.06-2.44,6.53-3.57,10.4a112.37,112.37,0,0,0-3.09,12.66,82,82,0,0,0-1.4,14.51c0,.06,0,.12,0,.17-.47-1.48-1.91-5.59-2.06-5.89-2.06-4.27-8.56-11.31-13.82-10.58a6.29,6.29,0,0,0-5,7.91c.89,3.64,4.64,6.33,7.89,7.73,3.67,1.59,12.33,1.42,13,1.4a110.84,110.84,0,0,0,1.25,14.8c.42,2.85.93,5.72,1.47,8.58-.44-1.27-.85-2.4-.92-2.55-2.07-4.27-8.57-11.31-13.83-10.57a6.28,6.28,0,0,0-5,7.9c.89,3.64,4.64,6.33,7.9,7.74s10.69,1.42,12.64,1.4c.22,1.1.43,2.19.66,3.29,1.08,5.26,2.18,10.5,3.1,15.68.33,1.82.58,3.63.84,5.44-.39-1.13-.74-2.08-.8-2.22-2.07-4.27-8.57-11.3-13.83-10.57a6.29,6.29,0,0,0-5,7.9c.89,3.64,4.64,6.34,7.9,7.74s10,1.43,12.29,1.41c.21,1.86.42,3.72.55,5.53.05,1.24.19,2.43.17,3.68s0,2.45,0,3.67c-.07,2.33-.12,4.74-.24,7-.07,1.58-.16,3.09-.26,4.61-.3-1.82-1-5.37-1.06-5.66a24.45,24.45,0,0,0-6.86-10.23,6.57,6.57,0,0,0-.52-1.29,6.28,6.28,0,0,0-9-2.63c-4.44,2.92-4.68,12.49-3.41,17.07.07.27,1.21,3.1,2,4.88-.6-1-1.17-1.94-1.8-2.94-1.22-2-2.51-3.92-3.88-6l-2.12-3c-.69-1-1.54-2-2.31-3-1.84-2.31-3.82-4.57-5.86-6.79,1.73-1.08,7.84-5,9.83-7.95s3.7-7.23,2.49-10.78a6.3,6.3,0,0,0-8.48-4c-4.83,2.22-6.52,11.65-6,16.36,0,.29.82,3.62,1.28,5.45-1.24-1.33-2.46-2.66-3.76-4-3.74-3.76-7.65-7.45-11.53-11.16-1.19-1.13-2.36-2.27-3.53-3.41.62-.38,8-4.89,10.21-8.19,2-2.93,3.7-7.22,2.49-10.77a6.28,6.28,0,0,0-8.48-4c-4.83,2.21-6.52,11.64-6,16.35,0,.36,1.17,5.15,1.52,6.36-2.59-2.51-5.15-5-7.57-7.63A112.75,112.75,0,0,1,388,341.86c.29-.17,8-4.84,10.28-8.22,2-2.94,3.7-7.23,2.49-10.78a6.3,6.3,0,0,0-8.48-4c-4.83,2.22-6.52,11.65-6,16.36,0,.31.9,4,1.35,5.69l-.28.13a81.16,81.16,0,0,1-7.05-12.61c-1.11-2.41-2-4.77-2.9-7.09,1.53-.72,8.45-4.1,10.85-6.92s4.46-6.77,3.65-10.43a6.29,6.29,0,0,0-8-4.87c-5,1.67-7.75,10.86-7.72,15.6,0,.26.32,2.88.57,4.78-.37-1.05-.77-2.13-1.1-3.15-1.27-3.81-2.19-7.38-3-10.55-.43-1.81-.79-3.45-1.11-5,1.13-1.48,5.58-7.54,6.4-11.08s.84-8.07-1.57-10.94a6.28,6.28,0,0,0-9.33-.64c-3.71,3.8-1.88,13.21.34,17.4.19.36,3.84,5.68,3.9,5.61l.07-.09c.28,1.48.59,3.08,1,4.81.72,3.19,1.57,6.79,2.75,10.64a110.65,110.65,0,0,0,4.41,12.26,82.3,82.3,0,0,0,6.83,12.88.76.76,0,0,1,.11.14c-1.21-1-4.68-3.61-5-3.79-4.08-2.42-13.38-4.7-17.36-1.19a6.29,6.29,0,0,0,.18,9.36C367.11,348.76,371.73,348.94,375.21,348.31Z" style="fill:#fff"></path><path d="M363.62,323.71c4.14.37,12.93-2.77,12.93-2.77s-3.83-5.16-4.11-5.46c-3.3-3.41-11.67-8.07-16.44-5.73a6.29,6.29,0,0,0-2.29,9.07C355.69,322,360.09,323.39,363.62,323.71Z" style="fill:#fff;opacity:0.30000000000000004"></path><path d="M453.74,295.85c.1,0-.35-6.42-.42-6.82-.86-4.67-5.28-13.17-10.54-13.85a6.29,6.29,0,0,0-6.92,6.3c-.11,3.75,2.8,7.33,5.57,9.55C444.68,293.63,453.74,295.84,453.74,295.85Z" style="fill:#fff;opacity:0.30000000000000004"></path><path d="M375.21,348.31c3.94-.7,11.07-5.62,11.63-6A111.71,111.71,0,0,0,396.05,354c1.92,2.15,3.92,4.26,6,6.35-1.07-.81-2-1.53-2.18-1.62-4.08-2.42-13.38-4.71-17.37-1.19a6.29,6.29,0,0,0,.18,9.35c2.76,2.55,7.37,2.72,10.86,2.1s9.7-4.7,11.32-5.8l2.36,2.38c3.8,3.79,7.62,7.56,11.24,11.36,1.28,1.35,2.49,2.71,3.7,4.08-.95-.73-1.76-1.33-1.89-1.4-4.08-2.43-13.38-4.71-17.37-1.2a6.3,6.3,0,0,0,.18,9.36c2.76,2.54,7.37,2.72,10.86,2.1s9.1-4.31,11-5.61c1.2,1.43,2.41,2.87,3.51,4.31.73,1,1.5,1.92,2.17,3l2.06,3c1.23,2,2.52,4,3.67,6,.81,1.36,1.56,2.67,2.32,4-1.25-1.35-3.77-3.94-4-4.14-3.67-3-12.52-6.67-17-3.8a6.29,6.29,0,0,0-1.24,9.27c2.34,2.93,6.88,3.81,10.42,3.72,3.9-.1,11.4-3.7,12.34-4.15,1.25,2.18,2.44,4.32,3.54,6.35,2.29,4.25,4.26,8.11,5.89,11.44l3.29-1.1c-1.77-3.43-3.91-7.44-6.43-11.86-1.26-2.23-2.65-4.58-4.1-7a67.4,67.4,0,0,0,5.81-5.54c3.51,1.94,11.21,3,12.2,3.14-.16,2.51-.34,4.95-.55,7.25-.4,4.52-.86,8.59-1.31,12.12l3.55-1.19c.32-3.19.64-6.77.9-10.68.17-2.55.31-5.28.42-8.08,1-.12,9.3-1.13,12.64-3.15,3-1.83,6.39-5,6.77-8.74a6.29,6.29,0,0,0-6-7.15c-5.31,0-10.8,7.84-12.26,12.35-.09.27-.71,3.26-1.06,5.16,0-1.15.09-2.26.12-3.44.07-2.33.07-4.66.08-7.17,0-1.21-.08-2.43-.12-3.67s-.18-2.51-.26-3.78c-.26-2.95-.67-5.92-1.14-8.9,2,.05,9.3.15,12.59-1.21s7.07-4,8-7.61a6.28,6.28,0,0,0-4.88-8c-5.25-.82-11.86,6.11-14,10.35-.14.26-1.32,3.48-1.94,5.25-.3-1.79-.59-3.58-.95-5.38-1.05-5.2-2.27-10.44-3.46-15.67-.37-1.6-.71-3.2-1.07-4.8.73,0,9.35.33,13-1.19,3.27-1.35,7.07-4,8-7.61a6.29,6.29,0,0,0-4.89-8c-5.25-.82-11.86,6.11-14,10.35-.16.32-1.86,4.94-2.24,6.14-.77-3.52-1.51-7-2.1-10.54a111.12,111.12,0,0,1-1.53-14.28c.34,0,9.33.37,13.11-1.19,3.27-1.35,7.07-4,8-7.61a6.3,6.3,0,0,0-4.89-8c-5.25-.82-11.86,6.12-14,10.35-.14.28-1.44,3.8-2,5.49l-.3-.05a80.57,80.57,0,0,1,1.08-14.39c.39-2.63.92-5.11,1.49-7.52,1.67.24,9.31,1.24,12.86.21,3.4-1,7.46-3.18,8.81-6.69a6.28,6.28,0,0,0-4-8.46c-5.13-1.39-12.46,4.77-15.05,8.75-.14.22-1.32,2.57-2.16,4.3.27-1.08.53-2.2.82-3.23,1.05-3.88,2.25-7.37,3.33-10.45.64-1.74,1.25-3.31,1.83-4.77,1.76-.62,8.82-3.21,11.45-5.71s5.15-6.27,4.73-10a6.29,6.29,0,0,0-7.43-5.69c-5.19,1.13-8.86,10-9.32,14.71,0,.4.07,6.86.16,6.83l.11,0c-.59,1.39-1.21,2.89-1.85,4.54-1.15,3.06-2.44,6.53-3.57,10.4a112.37,112.37,0,0,0-3.09,12.66,82,82,0,0,0-1.4,14.51c0,.06,0,.12,0,.17-.47-1.48-1.91-5.59-2.06-5.89-2.06-4.27-8.56-11.31-13.82-10.58a6.29,6.29,0,0,0-5,7.91c.89,3.64,4.64,6.33,7.89,7.73,3.67,1.59,12.33,1.42,13,1.4a110.84,110.84,0,0,0,1.25,14.8c.42,2.85.93,5.72,1.47,8.58-.44-1.27-.85-2.4-.92-2.55-2.07-4.27-8.57-11.31-13.83-10.57a6.28,6.28,0,0,0-5,7.9c.89,3.64,4.64,6.33,7.9,7.74s10.69,1.42,12.64,1.4c.22,1.1.43,2.19.66,3.29,1.08,5.26,2.18,10.5,3.1,15.68.33,1.82.58,3.63.84,5.44-.39-1.13-.74-2.08-.8-2.22-2.07-4.27-8.57-11.3-13.83-10.57a6.29,6.29,0,0,0-5,7.9c.89,3.64,4.64,6.34,7.9,7.74s10,1.43,12.29,1.41c.21,1.86.42,3.72.55,5.53.05,1.24.19,2.43.17,3.68s0,2.45,0,3.67c-.07,2.33-.12,4.74-.24,7-.07,1.58-.16,3.09-.26,4.61-.3-1.82-1-5.37-1.06-5.66a24.45,24.45,0,0,0-6.86-10.23,6.57,6.57,0,0,0-.52-1.29,6.28,6.28,0,0,0-9-2.63c-4.44,2.92-4.68,12.49-3.41,17.07.07.27,1.21,3.1,2,4.88-.6-1-1.17-1.94-1.8-2.94-1.22-2-2.51-3.92-3.88-6l-2.12-3c-.69-1-1.54-2-2.31-3-1.84-2.31-3.82-4.57-5.86-6.79,1.73-1.08,7.84-5,9.83-7.95s3.7-7.23,2.49-10.78a6.3,6.3,0,0,0-8.48-4c-4.83,2.22-6.52,11.65-6,16.36,0,.29.82,3.62,1.28,5.45-1.24-1.33-2.46-2.66-3.76-4-3.74-3.76-7.65-7.45-11.53-11.16-1.19-1.13-2.36-2.27-3.53-3.41.62-.38,8-4.89,10.21-8.19,2-2.93,3.7-7.22,2.49-10.77a6.28,6.28,0,0,0-8.48-4c-4.83,2.21-6.52,11.64-6,16.35,0,.36,1.17,5.15,1.52,6.36-2.59-2.51-5.15-5-7.57-7.63A112.75,112.75,0,0,1,388,341.86c.29-.17,8-4.84,10.28-8.22,2-2.94,3.7-7.23,2.49-10.78a6.3,6.3,0,0,0-8.48-4c-4.83,2.22-6.52,11.65-6,16.36,0,.31.9,4,1.35,5.69l-.28.13a81.16,81.16,0,0,1-7.05-12.61c-1.11-2.41-2-4.77-2.9-7.09,1.53-.72,8.45-4.1,10.85-6.92s4.46-6.77,3.65-10.43a6.29,6.29,0,0,0-8-4.87c-5,1.67-7.75,10.86-7.72,15.6,0,.26.32,2.88.57,4.78-.37-1.05-.77-2.13-1.1-3.15-1.27-3.81-2.19-7.38-3-10.55-.43-1.81-.79-3.45-1.11-5,1.13-1.48,5.58-7.54,6.4-11.08s.84-8.07-1.57-10.94a6.28,6.28,0,0,0-9.33-.64c-3.71,3.8-1.88,13.21.34,17.4.19.36,3.84,5.68,3.9,5.61l.07-.09c.28,1.48.59,3.08,1,4.81.72,3.19,1.57,6.79,2.75,10.64a110.65,110.65,0,0,0,4.41,12.26,82.3,82.3,0,0,0,6.83,12.88.76.76,0,0,1,.11.14c-1.21-1-4.68-3.61-5-3.79-4.08-2.42-13.38-4.7-17.36-1.19a6.29,6.29,0,0,0,.18,9.36C367.11,348.76,371.73,348.94,375.21,348.31Z" style="fill:#fff;opacity:0.30000000000000004"></path></g><g id="freepik--Bananas--inject-94"><path d="M391.44,370.45s-2.91,4.4-2.9,5.81-3.61,4.33-5,6.17a14.5,14.5,0,0,1-2.22,2.5s-3.93-.15-9.78,4.71-10.81,15.25-10.3,26.62,4.52,21.65,16.25,34.07,17.81,17.56,28.2,19.55,13.89,1.48,16.54-.63,2.07-3.75,1.5-5.38-1.73-6-1.73-6,7.48,6.67,17.86,7,15-1.74,16.93-3.92,3.06-4,1.78-5.13-5.67-7.85-5.67-7.85,13.63,3.2,19.49-.25,6.55-5.35,5.69-7.8-2.27-3.42-5.51-5.47a49.71,49.71,0,0,0-12.11-5.48c-4.07-1.11-17.85-5.57-28.41-11.63S412.38,394.72,410,392.58a20.86,20.86,0,0,1-5.25-8.32c-1-2.85-.49-9.11-.49-9.11l-.72-2.32s2.51-1.4,2.77-3.4-.88-5.83-3-6a5.11,5.11,0,0,0-3.77,1.67s-4.61,1.76-5.45,2.69S391.44,370.45,391.44,370.45Z" style="fill:#fff;stroke:#263238;stroke-linecap:round;stroke-linejoin:round"></path><path d="M390.06,373.7a1.83,1.83,0,0,0-.68,2.19c.57,1.35,1.14,1.85,2.12,1.61s.57,1.06,1,1.44,1.26-.27,2.24-.52a4.94,4.94,0,0,0,1.95-1.34s3.08-.32,3.5-.79l2.22-2.5,1.12-1s3.21-1,2.77-3.4-.52-3.64-1.17-4.87-2.58-1-3.79-.64a3.79,3.79,0,0,0-1.8,1.16s-3.81,1.05-5,2.39a24.16,24.16,0,0,1-2.47,2.45c-.62.53-1.69.91-1.76,1.48S389.41,374,390.06,373.7Z" style="fill:#707070;stroke:#263238;stroke-linecap:round;stroke-linejoin:round"></path><path d="M418.87,455.35c1.38,1.09,2.28,1.75,2.28,1.75" style="fill:none;stroke:#263238;stroke-linecap:round;stroke-linejoin:round"></path><path d="M397.23,376.18l-9.56,13.57a38.59,38.59,0,0,0-1.74,10.48c-.23,6.22-1.69,16.67,7.67,30.06s16.4,17.42,20.21,20.82c.8.71,1.58,1.38,2.32,2" style="fill:none;stroke:#263238;stroke-linecap:round;stroke-linejoin:round"></path><path d="M398.34,374.65s-3.41,10.94-4.37,14-5.85,5.42-8,11.58" style="fill:#fff;stroke:#263238;stroke-linecap:round;stroke-linejoin:round"></path><path d="M419.18,423.62a72.41,72.41,0,0,0,9.91,9.79c11.72,9.89,18.45,10.29,21.13,12.41" style="fill:none;stroke:#263238;stroke-linecap:round;stroke-linejoin:round"></path><path d="M403,375.71s-.06,10,.38,13.21,2.14,4.71,6.59,16.78c2.51,6.83,4.55,11.63,8,16.3" style="fill:none;stroke:#263238;stroke-linecap:round;stroke-linejoin:round"></path></g><g id="freepik--Apple--inject-94"><path d="M391.86,269.63a16.87,16.87,0,0,0-15.62,1.63c-8.33,5.18-14.63,20-13.82,31.61s3.89,22.17,8.23,30a38.56,38.56,0,0,0,22.48,17.79c5.95,1.63,23.73,2.39,33.42-2.63s16.33-15.47,21.21-31.27.57-31-3.75-38.54-19.59-12.48-25-12.1l-10.53.72S398.72,262.92,391.86,269.63Z" style="fill:#fff;stroke:#263238;stroke-linecap:round;stroke-linejoin:round"></path><path d="M378.56,290a1.79,1.79,0,1,1-1.78-1.61A1.7,1.7,0,0,1,378.56,290Z" style="fill:none;stroke:#263238;stroke-linecap:round;stroke-linejoin:round"></path><path d="M383.14,286a1,1,0,1,1-2,0,1,1,0,0,1,2,0Z" style="fill:none;stroke:#263238;stroke-linecap:round;stroke-linejoin:round"></path><ellipse cx="388.15" cy="291.67" rx="1.27" ry="1.1" style="fill:none;stroke:#263238;stroke-linecap:round;stroke-linejoin:round"></ellipse><circle cx="383.57" cy="294.55" r="0.59" style="fill:none;stroke:#263238;stroke-linecap:round;stroke-linejoin:round"></circle><path d="M376.7,298.11a.94.94,0,1,1-.94-.93A.93.93,0,0,1,376.7,298.11Z" style="fill:none;stroke:#263238;stroke-linecap:round;stroke-linejoin:round"></path><path d="M394.34,282.17a.94.94,0,1,1-.94-.94A.94.94,0,0,1,394.34,282.17Z" style="fill:none;stroke:#263238;stroke-linecap:round;stroke-linejoin:round"></path><circle cx="376.1" cy="279.62" r="1.1" style="fill:none;stroke:#263238;stroke-linecap:round;stroke-linejoin:round"></circle><path d="M411.54,267.44s5.24,8.26,12.29,10.68,8.66.61,12.69,1.41,7.05,5.64,7.05,5.64-.25-5.79-3.55-9.64-19.82-8.69-22-9.09S411.54,267.44,411.54,267.44Z" style="fill:#263238;stroke:#263238;stroke-linecap:round;stroke-linejoin:round"></path><path d="M445.64,290.8a41.52,41.52,0,0,0-4.26-10.71,17.55,17.55,0,0,0-5.92-5.53" style="fill:#fff;stroke:#263238;stroke-linecap:round;stroke-linejoin:round"></path><path d="M437.46,333.2a74.81,74.81,0,0,0,7.5-16.81,46.21,46.21,0,0,0,1.24-23.08" style="fill:#fff;stroke:#263238;stroke-linecap:round;stroke-linejoin:round"></path><path d="M432.49,339.65a39.27,39.27,0,0,0,3.29-4" style="fill:#fff;stroke:#263238;stroke-linecap:round;stroke-linejoin:round"></path><path d="M394.74,272.21c7.55-.85,20.17-1.5,29.18,2" style="fill:none;stroke:#263238;stroke-linecap:round;stroke-linejoin:round"></path><path d="M388.31,273.14s1.37-.27,3.64-.58" style="fill:none;stroke:#263238;stroke-linecap:round;stroke-linejoin:round"></path><path d="M450.76,271.79c.61.4,1.23.81,1.84,1.24" style="fill:none;stroke:#263238;stroke-linecap:round;stroke-linejoin:round"></path><path d="M403,271.59s2.1-18.61,2-20.23-.75-2.93.06-3,3,.07,3.08,1.42-2.29,6.12-2,10.72.12,11,.12,11Z" style="fill:#263238;stroke:#263238;stroke-linecap:round;stroke-linejoin:round"></path><path d="M406.45,257l2.72.08s9.25-7.42,18-6.94,19.07,9,21.18,12.1,4.71,9.17,6.19,11,2.65,3.07,2.65,3.07-12.34-1.86-17.14-.71l-4.8,1.14s-2.77,3.18-10,.15-14.79-9.83-15.77-12.2a44.24,44.24,0,0,1-1.74-5.58l-1.66-.42Z" style="fill:#FF6601;stroke:#263238;stroke-linecap:round;stroke-linejoin:round"></path><path d="M419.18,259.46a89.32,89.32,0,0,1,30.17,11.44" style="fill:none;stroke:#263238;stroke-linecap:round;stroke-linejoin:round"></path><path d="M410.34,258.32a64.1,64.1,0,0,1,7.13.84" style="fill:none;stroke:#263238;stroke-linecap:round;stroke-linejoin:round"></path></g><g id="freepik--Strawberry--inject-94"><path d="M417.66,155.57s-4.34-5.4-4.76-9.63a46.55,46.55,0,0,1-.35-5.67s-3.88,6.09-2.81,12.31,8.46,13,9.89,12.08-1.32-8.13-1.32-8.13Z" style="fill:#FF6601;stroke:#263238;stroke-linecap:round;stroke-linejoin:round"></path><path d="M429,175.39a67,67,0,0,0,8.43,7.86c5.21,4.12,9.44,3.7,11.34.33a54.17,54.17,0,0,0,2.68-5.28l-5.26,1.46s3.9-1.93,3.24-5l-.65-3a23.68,23.68,0,0,1-6.92,4.67C438,178,432,174.73,432,174.73s5.68,1.73,8.94-1.16,5.46-7.86,3.77-10.88a36.85,36.85,0,0,0-5-6.36s.28,6.06-.27,7.82a7.64,7.64,0,0,1-2.7,3.21s2.27-7.43,0-10.78a46.08,46.08,0,0,0-3.62-4.84l-4.05,3.77.38-4.07s-5.93-2.61-9.51-.19-4.5,8.25-4.5,8.25l1.22,3.34a44.21,44.21,0,0,0-6.2-8.66c-4.1-4.53-1.9-11.57-1.9-11.57s-4.43,6.81-4.74,9.45,3.24,7.88,3.72,8.6a11,11,0,0,0,1.37,1.51s-2.48-1.11-5.22-5.16-4.44-8.12-4.52-9.8,1.8-5,1.8-5a6,6,0,0,0-3.71,7.37,17.11,17.11,0,0,0,3.3,6.37,22.48,22.48,0,0,0,3.3,3.41s-10.41-6.17-13.36-4.87-5.65,2.42-5.65,2.42,2.32.87,7.84,2.35,15.19,4,18.07,5.17,16.67,12.36,16.67,12.36Z" style="fill:#FF6601;stroke:#263238;stroke-linecap:round;stroke-linejoin:round"></path><path d="M418,166.83s-1.78-3.66-13.29-6.31-18.92.26-24.24,6.28-6.38,14.72-5.78,22.3,3.89,24.81,6.49,32.78,9.46,7.85,16.87,4.93,25.82-8,33.91-17.67,5.46-22.78,2.4-28.35-10.51-8.88-13.23-10.87S418,166.83,418,166.83Z" style="fill:#fff;stroke:#263238;stroke-linecap:round;stroke-linejoin:round"></path><path d="M395.79,175.65a3.58,3.58,0,0,0,.51-3.61c-.42-1-1.19-1.6-2.55-.23-2.72,2.75-.59,7.26-.59,7.26Z" style="fill:#fff;stroke:#263238;stroke-linecap:round;stroke-linejoin:round"></path><path d="M405,169.08a3.59,3.59,0,0,0,2.11-3c.07-1.06-.33-2-2.16-1.37-3.68,1.2-3.86,6.18-3.86,6.18Z" style="fill:#fff;stroke:#263238;stroke-linecap:round;stroke-linejoin:round"></path><path d="M414.06,172.48a3.61,3.61,0,0,0,2.11-3c.06-1.05-.33-2-2.17-1.36-3.67,1.19-3.85,6.17-3.85,6.17Z" style="fill:#fff;stroke:#263238;stroke-linecap:round;stroke-linejoin:round"></path><path d="M430.37,188.59a3.61,3.61,0,0,1,1.47-3.34c.87-.6,1.86-.73,2.29,1.15.86,3.77-3.32,6.49-3.32,6.49Z" style="fill:#fff;stroke:#263238;stroke-linecap:round;stroke-linejoin:round"></path><path d="M395.27,167.18a3.59,3.59,0,0,0,2.11-3c.07-1.06-.33-2-2.17-1.37-3.67,1.19-3.85,6.18-3.85,6.18Z" style="fill:#fff;stroke:#263238;stroke-linecap:round;stroke-linejoin:round"></path><path d="M386.44,176a3.62,3.62,0,0,0,.51-3.62c-.43-1-1.19-1.59-2.55-.22-2.72,2.75-.59,7.26-.59,7.26Z" style="fill:#fff;stroke:#263238;stroke-linecap:round;stroke-linejoin:round"></path><path d="M387.35,188.21a3.62,3.62,0,0,0,.51-3.62c-.43-1-1.2-1.59-2.55-.22-2.72,2.75-.6,7.26-.6,7.26Z" style="fill:#fff;stroke:#263238;stroke-linecap:round;stroke-linejoin:round"></path><path d="M398.38,187.62a3.58,3.58,0,0,0,.51-3.61c-.42-1-1.19-1.6-2.55-.23-2.72,2.75-.59,7.26-.59,7.26Z" style="fill:#fff;stroke:#263238;stroke-linecap:round;stroke-linejoin:round"></path><path d="M405.79,177.59a3.58,3.58,0,0,0,.51-3.61c-.42-1-1.19-1.6-2.55-.22-2.72,2.74-.59,7.25-.59,7.25Z" style="fill:#fff;stroke:#263238;stroke-linecap:round;stroke-linejoin:round"></path><path d="M411.45,180a3.58,3.58,0,0,1,2-3.07c.95-.46,1.94-.44,2.08,1.49.27,3.85-4.28,5.89-4.28,5.89Z" style="fill:#fff;stroke:#263238;stroke-linecap:round;stroke-linejoin:round"></path><path d="M406.27,192.88a3.59,3.59,0,0,1,2.64-2.52c1-.22,2,0,1.66,1.94C409.92,196.11,405,197,405,197Z" style="fill:#fff;stroke:#263238;stroke-linecap:round;stroke-linejoin:round"></path><path d="M399,204.65a3.59,3.59,0,0,1,2.64-2.52c1-.22,2,0,1.66,2-.64,3.81-5.55,4.71-5.55,4.71Z" style="fill:#fff;stroke:#263238;stroke-linecap:round;stroke-linejoin:round"></path><path d="M389.73,218a3.6,3.6,0,0,1,2.64-2.52c1-.22,2,0,1.67,1.94-.65,3.81-5.55,4.71-5.55,4.71Z" style="fill:#fff;stroke:#263238;stroke-linecap:round;stroke-linejoin:round"></path><path d="M414.4,198.8a3.57,3.57,0,0,1,2.64-2.52c1-.22,2,0,1.66,1.94-.64,3.81-5.55,4.71-5.55,4.71Z" style="fill:#fff;stroke:#263238;stroke-linecap:round;stroke-linejoin:round"></path><path d="M421.45,209.33a3.63,3.63,0,0,1,3.24-1.7c1.05.08,1.9.59,1.06,2.33-1.67,3.49-6.63,3-6.63,3Z" style="fill:#fff;stroke:#263238;stroke-linecap:round;stroke-linejoin:round"></path><path d="M411.72,216.47a3.62,3.62,0,0,1,3.49-1.09c1,.26,1.77.91.63,2.48-2.27,3.13-7.06,1.76-7.06,1.76Z" style="fill:#fff;stroke:#263238;stroke-linecap:round;stroke-linejoin:round"></path><path d="M401.33,214.91a3.61,3.61,0,0,1,2.73-2.43c1-.18,2,.11,1.59,2-.78,3.79-5.71,4.51-5.71,4.51Z" style="fill:#fff;stroke:#263238;stroke-linecap:round;stroke-linejoin:round"></path><path d="M427.14,199.26a3.64,3.64,0,0,1,3-2.13c1.06-.06,2,.34,1.36,2.17-1.21,3.67-6.19,3.83-6.19,3.83Z" style="fill:#fff;stroke:#263238;stroke-linecap:round;stroke-linejoin:round"></path><path d="M413.31,208.29a3.6,3.6,0,0,1,3-2.13c1.06-.06,2,.33,1.36,2.17-1.21,3.67-6.19,3.83-6.19,3.83Z" style="fill:#fff;stroke:#263238;stroke-linecap:round;stroke-linejoin:round"></path><path d="M423.17,188.79a3.62,3.62,0,0,1,2.64-2.52c1-.22,2,0,1.67,1.94-.65,3.81-5.56,4.71-5.56,4.71Z" style="fill:#fff;stroke:#263238;stroke-linecap:round;stroke-linejoin:round"></path><path d="M420.76,179.29a3.59,3.59,0,0,1,1.86-3.13c.94-.49,1.93-.5,2.13,1.42.4,3.85-4.08,6-4.08,6Z" style="fill:#fff;stroke:#263238;stroke-linecap:round;stroke-linejoin:round"></path><path d="M393.46,199.61A3.63,3.63,0,0,0,394,196c-.42-1-1.19-1.6-2.55-.22-2.72,2.75-.59,7.26-.59,7.26Z" style="fill:#fff;stroke:#263238;stroke-linecap:round;stroke-linejoin:round"></path><path d="M380.18,187.4a3.59,3.59,0,0,0,0-3.65c-.56-.9-1.4-1.42-2.56.13-2.32,3.1.4,7.27.4,7.27Z" style="fill:#fff;stroke:#263238;stroke-linecap:round;stroke-linejoin:round"></path><path d="M382.31,201.86a3.56,3.56,0,0,0-.34-3.63c-.64-.85-1.53-1.28-2.53.37-2,3.3,1.11,7.2,1.11,7.2Z" style="fill:#fff;stroke:#263238;stroke-linecap:round;stroke-linejoin:round"></path><path d="M387,212.87a3.61,3.61,0,0,0-.34-3.63c-.64-.85-1.53-1.28-2.53.37-2,3.31,1.1,7.2,1.1,7.2Z" style="fill:#fff;stroke:#263238;stroke-linecap:round;stroke-linejoin:round"></path></g><g id="freepik--Pear--inject-94"><path d="M412.27,41.89a14.38,14.38,0,0,1,15.29,11c2.54,8.89,7.82,21,9.95,27s10,17.07,5.33,33.07-29.15,19.2-43,17.78-25.95-10.31-28.08-25.6,1.77-22.05,10.66-30.58,9.25-17.07,17.07-25.6S412.27,41.89,412.27,41.89Z" style="fill:#fff;stroke:#263238;stroke-linecap:round;stroke-linejoin:round"></path><path d="M420.09,45.09s-7.11,1.07-10.67-.71" style="fill:none;stroke:#263238;stroke-linecap:round;stroke-linejoin:round"></path><path d="M416.54,45.43s-.88-.66,2.41-6.58a87,87,0,0,0,5.93-14c1.32-3.51,1.32-4.17,0-4.17s-2.85-1.1-3.29.22a41.8,41.8,0,0,0-2,7c-.44,2.86-2.19,9.22-3.73,11.2a43.29,43.29,0,0,0-3.51,6.14S415.66,45,416.54,45.43Z" style="fill:#263238;stroke:#263238;stroke-linecap:round;stroke-linejoin:round"></path><path d="M420.93,25.46s-4.39-2.2-7.25-2.2" style="fill:none;stroke:#263238;stroke-linecap:round;stroke-linejoin:round"></path><path d="M413.68,22.17a51.72,51.72,0,0,0-9.87-4.61c-6.15-2.2-16.46.44-20.19,3.51s-10.1,22-10.1,22,13,2.63,20.85,1.1S407.32,38,411.05,32.7A14.48,14.48,0,0,0,413.68,22.17Z" style="fill:#FF6601;stroke:#263238;stroke-linecap:round;stroke-linejoin:round"></path><path d="M413.68,23.26s-20.85,4.61-38.18,18.22" style="fill:none;stroke:#263238;stroke-linecap:round;stroke-linejoin:round"></path><path d="M434.15,101.58a1.45,1.45,0,0,0,2.89,0,1.45,1.45,0,1,0-2.89,0Z" style="fill:none;stroke:#263238;stroke-linecap:round;stroke-linejoin:round"></path><circle cx="429.02" cy="107.88" r="0.66" style="fill:none;stroke:#263238;stroke-linecap:round;stroke-linejoin:round"></circle><path d="M429.94,101.45a.79.79,0,1,0,.79-.79A.79.79,0,0,0,429.94,101.45Z" style="fill:none;stroke:#263238;stroke-linecap:round;stroke-linejoin:round"></path><path d="M430.2,93.3a.79.79,0,1,0,.79-.79A.79.79,0,0,0,430.2,93.3Z" style="fill:none;stroke:#263238;stroke-linecap:round;stroke-linejoin:round"></path><path d="M433.62,109.59a.79.79,0,1,0,1.58,0,.79.79,0,1,0-1.58,0Z" style="fill:none;stroke:#263238;stroke-linecap:round;stroke-linejoin:round"></path><circle cx="419.56" cy="107.1" r="0.66" style="fill:none;stroke:#263238;stroke-linecap:round;stroke-linejoin:round"></circle><circle cx="419.56" cy="51.65" r="1.18" style="fill:none;stroke:#263238;stroke-linecap:round;stroke-linejoin:round"></circle><path d="M424.42,57a.53.53,0,1,0,.53-.53A.53.53,0,0,0,424.42,57Z" style="fill:none;stroke:#263238;stroke-linecap:round;stroke-linejoin:round"></path><path d="M417.59,59.41a1.05,1.05,0,1,0,1.05-1.06A1,1,0,0,0,417.59,59.41Z" style="fill:none;stroke:#263238;stroke-linecap:round;stroke-linejoin:round"></path></g><g id="freepik--Burger--inject-94"><path d="M150.34,433.41a31.55,31.55,0,0,1,.3,3.92c.27,14.32-23.63,20.9-53.26,21.46s-53.77-5.11-54-19.43c-.05-2.48-.22-3.36.27-5.29l1.59-4.62s15.46,6.9,30.83,8.8,38.78-.58,52.35-2.55,20.84-6.34,20.84-6.34Z" style="fill:#fff;stroke:#263238;stroke-linecap:round;stroke-linejoin:round"></path><path d="M45.83,416.71s-3.44,3.75-3.44,7.51.15,6.72,3.13,9.07,7.35,4.53,14.23,5.63S76,442.2,82,443.3s24.24-.32,30.49-1.25,9.07-.94,18.14-1.57,10-2.66,13.14-5.47,7.35-1.57,8-8.13-2-9.86-4.38-10.64-8.92,2.5-21.9,2.5-32.06,2.19-49.89.16a261.33,261.33,0,0,1-28.3-4.54Z" style="fill:#fff;stroke:#263238;stroke-linecap:round;stroke-linejoin:round"></path><path d="M80.55,437.82c0,.48-.56.86-1.25.86s-1.25-.38-1.25-.86.56-.86,1.25-.86S80.55,437.35,80.55,437.82Z" style="fill:#fff;stroke:#263238;stroke-linecap:round;stroke-linejoin:round"></path><path d="M84.77,440.33a.72.72,0,1,1-.7-.86A.79.79,0,0,1,84.77,440.33Z" style="fill:#fff;stroke:#263238;stroke-linecap:round;stroke-linejoin:round"></path><ellipse cx="80.78" cy="440.25" rx="0.55" ry="0.31" style="fill:#fff;stroke:#263238;stroke-linecap:round;stroke-linejoin:round"></ellipse><path d="M79.92,433.84a.55.55,0,1,1-.54-.47A.51.51,0,0,1,79.92,433.84Z" style="fill:#fff;stroke:#263238;stroke-linecap:round;stroke-linejoin:round"></path><path d="M84,436.26a.73.73,0,1,1-.7-.55A.65.65,0,0,1,84,436.26Z" style="fill:#fff;stroke:#263238;stroke-linecap:round;stroke-linejoin:round"></path><path d="M131.22,431.57c0,.47-.56.86-1.25.86s-1.25-.39-1.25-.86.56-.86,1.25-.86S131.22,431.09,131.22,431.57Z" style="fill:#fff;stroke:#263238;stroke-linecap:round;stroke-linejoin:round"></path><path d="M135.44,434.07a.72.72,0,1,1-1.41,0,.72.72,0,1,1,1.41,0Z" style="fill:#fff;stroke:#263238;stroke-linecap:round;stroke-linejoin:round"></path><path d="M132,434c0,.18-.24.32-.55.32s-.54-.14-.54-.32.24-.31.54-.31S132,433.82,132,434Z" style="fill:#fff;stroke:#263238;stroke-linecap:round;stroke-linejoin:round"></path><path d="M130.59,427.58a.55.55,0,1,1-.54-.47A.51.51,0,0,1,130.59,427.58Z" style="fill:#fff;stroke:#263238;stroke-linecap:round;stroke-linejoin:round"></path><path d="M134.66,430a.63.63,0,0,1-.7.55.56.56,0,1,1,0-1.09A.63.63,0,0,1,134.66,430Z" style="fill:#fff;stroke:#263238;stroke-linecap:round;stroke-linejoin:round"></path><path d="M145.58,427.17c-.46-.11-.71-.74-.55-1.42s.66-1.13,1.12-1,.71.74.55,1.41S146,427.27,145.58,427.17Z" style="fill:#fff;stroke:#263238;stroke-linecap:round;stroke-linejoin:round"></path><path d="M142.19,430.71a.72.72,0,1,1,1-.49A.8.8,0,0,1,142.19,430.71Z" style="fill:#fff;stroke:#263238;stroke-linecap:round;stroke-linejoin:round"></path><path d="M143,427.38c-.16,0-.25-.31-.18-.61s.26-.5.43-.46.25.31.18.61S143.21,427.42,143,427.38Z" style="fill:#fff;stroke:#263238;stroke-linecap:round;stroke-linejoin:round"></path><path d="M149.61,427.46a.53.53,0,0,1-.34-.64.52.52,0,0,1,.59-.43.56.56,0,0,1-.25,1.07Z" style="fill:#fff;stroke:#263238;stroke-linecap:round;stroke-linejoin:round"></path><path d="M146.33,430.87a.73.73,0,1,1,.69-.56A.64.64,0,0,1,146.33,430.87Z" style="fill:#fff;stroke:#263238;stroke-linecap:round;stroke-linejoin:round"></path><path d="M91.39,433.59c-.12-.46.32-1,1-1.14s1.31.06,1.43.52-.33,1-1,1.15S91.5,434.05,91.39,433.59Z" style="fill:#fff;stroke:#263238;stroke-linecap:round;stroke-linejoin:round"></path><path d="M86.67,432.22a.72.72,0,1,1,1.37-.35.72.72,0,1,1-1.37.35Z" style="fill:#fff;stroke:#263238;stroke-linecap:round;stroke-linejoin:round"></path><path d="M90,431.44c0-.17.16-.36.45-.44s.56,0,.61.17-.16.36-.46.44S90.07,431.61,90,431.44Z" style="fill:#fff;stroke:#263238;stroke-linecap:round;stroke-linejoin:round"></path><path d="M93,437.3a.56.56,0,0,1,1.07-.27.56.56,0,0,1-1.07.27Z" style="fill:#fff;stroke:#263238;stroke-linecap:round;stroke-linejoin:round"></path><path d="M88.44,436a.73.73,0,1,1,.82.36A.64.64,0,0,1,88.44,436Z" style="fill:#fff;stroke:#263238;stroke-linecap:round;stroke-linejoin:round"></path><path d="M48.59,428.33c-.12-.46.33-1,1-1.15s1.3.06,1.42.52-.33,1-1,1.15S48.71,428.79,48.59,428.33Z" style="fill:#fff;stroke:#263238;stroke-linecap:round;stroke-linejoin:round"></path><path d="M43.88,427a.72.72,0,1,1,.89.66A.79.79,0,0,1,43.88,427Z" style="fill:#fff;stroke:#263238;stroke-linecap:round;stroke-linejoin:round"></path><path d="M47.23,426.17c0-.17.16-.36.45-.44s.56,0,.61.17-.16.36-.45.44S47.27,426.34,47.23,426.17Z" style="fill:#fff;stroke:#263238;stroke-linecap:round;stroke-linejoin:round"></path><path d="M50.19,432a.51.51,0,0,1,.41-.59.53.53,0,0,1,.65.32.52.52,0,0,1-.42.59A.5.5,0,0,1,50.19,432Z" style="fill:#fff;stroke:#263238;stroke-linecap:round;stroke-linejoin:round"></path><path d="M45.65,430.7a.72.72,0,0,1,1.36-.35.64.64,0,0,1-.55.7A.63.63,0,0,1,45.65,430.7Z" style="fill:#fff;stroke:#263238;stroke-linecap:round;stroke-linejoin:round"></path><ellipse cx="111.35" cy="431.51" rx="15.16" ry="12.25" style="fill:#fff;stroke:#263238;stroke-linecap:round;stroke-linejoin:round"></ellipse><ellipse cx="111.35" cy="430.34" rx="15.16" ry="12.25" style="fill:#fff;stroke:#263238;stroke-linecap:round;stroke-linejoin:round"></ellipse><path d="M118.31,421.84a12.47,12.47,0,0,0-6.13-1.95c-3.69-.19-4.37.2-3.79,1a5.88,5.88,0,0,1,.78,3.5c0,1.56-1.56,1.37-3.89.59s-2-2.43-4.77-.39-3.5,3.69-3.2,6.32,1,4,2.52,4,4.09-3,7.3-3.31,0,.68-1.27,3.11-2.62,3.4,1,4.86,7.88,1.66,10.41.29a3.61,3.61,0,0,0,1.55-4.95c-.58-.88-1.55-2.63-.58-2.82s4.09,3.88,5.54,2.43a6.46,6.46,0,0,0,.88-7.49c-1.65-2.63-3.5-.68-5.45-1.46s-2-1.17-1.36-1.75S119.09,422.52,118.31,421.84Z" style="fill:#fff;stroke:#263238;stroke-linecap:round;stroke-linejoin:round"></path><path d="M108.59,427.38s-2.34-.49-4.19-1-2.91,1.94-2.43,2.91,1.27.59,3,0,4.47-.19,5.15.49,0,2.33-.58,3.5,2.14,3.69,4.37,3.31,1.46-4.09,1.46-5.45.88-1.94,2-1.26,3.3,1.84,3.4-.1a2.61,2.61,0,0,0-2.43-2.92c-1.07,0-3.79.1-3.79-.58s3.11-3,.77-3.89-4.08.1-3.89,1.56.2,2.62-.58,3A6.37,6.37,0,0,1,108.59,427.38Z" style="fill:#fff;stroke:#263238;stroke-linecap:round;stroke-linejoin:round"></path><ellipse cx="61.62" cy="424.63" rx="15.16" ry="12.25" style="fill:#fff;stroke:#263238;stroke-linecap:round;stroke-linejoin:round"></ellipse><ellipse cx="61.62" cy="423.46" rx="15.16" ry="12.25" style="fill:#fff;stroke:#263238;stroke-linecap:round;stroke-linejoin:round"></ellipse><path d="M68.58,415A12.46,12.46,0,0,0,62.45,413c-3.7-.19-4.38.19-3.79,1a5.88,5.88,0,0,1,.78,3.5c0,1.56-1.56,1.36-3.89.59s-2-2.43-4.77-.39-3.5,3.69-3.21,6.32,1,4,2.53,4,4.08-3,7.29-3.3,0,.68-1.26,3.11-2.63,3.4,1,4.86,7.88,1.65,10.41.29a3.63,3.63,0,0,0,1.55-5c-.58-.87-1.55-2.62-.58-2.82s4.08,3.89,5.54,2.44a6.46,6.46,0,0,0,.88-7.49c-1.66-2.63-3.5-.68-5.45-1.46s-2-1.17-1.36-1.75S69.35,415.64,68.58,415Z" style="fill:#fff;stroke:#263238;stroke-linecap:round;stroke-linejoin:round"></path><path d="M58.85,420.5s-2.33-.49-4.18-1-2.92,2-2.43,2.92,1.26.59,3,0,4.48-.19,5.16.49,0,2.33-.59,3.5,2.14,3.69,4.38,3.3,1.46-4.08,1.46-5.44.87-2,1.94-1.26,3.31,1.84,3.41-.1A2.62,2.62,0,0,0,68.58,420c-1.07,0-3.8.1-3.8-.58s3.12-3,.78-3.89-4.08.1-3.89,1.55.2,2.63-.58,3A6.41,6.41,0,0,1,58.85,420.5Z" style="fill:#fff;stroke:#263238;stroke-linecap:round;stroke-linejoin:round"></path><path d="M149.27,398.81s2.15,4.3,5.16,9-2.58,5.16-6,10.32-.86,8.6-9.89,7.74-8.6-5.59-13.76-2.58-9.89,7.31-15.48,3.87-8.6-3.87-12.46-1.29-8.6,6.45-15,2.15-8.6-3-14.19,1.72-12,2.15-13.76-3.87-3.44-3.44-8.6-7.74-.43-9.46-.43-9.46l2.47-.61s4.36,5.09,14.55,7.76,57,1.21,63.53-.25,11.15-1.94,14.54-5.82a95.74,95.74,0,0,0,7.52-10.66S147.25,396.82,149.27,398.81Z" style="fill:#FF6601;stroke:#263238;stroke-linecap:round;stroke-linejoin:round"></path><path d="M102.9,418.68a13.81,13.81,0,0,0-6.42,3.43c-2.35,2.57-3.85,5.35-8.13,6s-8.57-5.57-12.64-6-13.27.64-12,3,7.5-.64,6.21.65-3.33,2.19-5.73,4-3.69,1.8-6.26-2.06" style="fill:none;stroke:#263238;stroke-linecap:round;stroke-linejoin:round"></path><path d="M119.82,423.82s4.92-4.71,7.92-4.71,5.35,5.14,11.34,4.71,5.89-3.56,7.07-5.57" style="fill:none;stroke:#263238;stroke-linecap:round;stroke-linejoin:round"></path><path d="M143.29,415.27a21.62,21.62,0,0,1-8.72,3.13c-4.46.34-13,.68-19.89.68a49.56,49.56,0,0,0-12.28,1.55,42.59,42.59,0,0,1-15.38,2,45.9,45.9,0,0,1-16.3-4.57,17.45,17.45,0,0,0-4.4-.73c-2.06,0-7.55-2.4-11-2.4s-8.92.34-12.69-5.83,2.56-8.65,2.56-8.65a2.86,2.86,0,0,1,3.25.11c1.7,1.21,31.52,5.82,53.83,4.36s34.67-2.18,39.52-5.82,8.18-1.32,8.18-1.32,6.86,2.06,6.17,7.89-8.88,7.55-8.88,7.55Z" style="fill:#fff;stroke:#263238;stroke-linecap:round;stroke-linejoin:round"></path><path d="M47.55,407.87c0,.48-.56.86-1.25.86s-1.25-.38-1.25-.86.56-.86,1.25-.86S47.55,407.4,47.55,407.87Z" style="fill:#fff;stroke:#263238;stroke-linecap:round;stroke-linejoin:round"></path><path d="M51.77,410.38a.72.72,0,1,1-.7-.86A.79.79,0,0,1,51.77,410.38Z" style="fill:#fff;stroke:#263238;stroke-linecap:round;stroke-linejoin:round"></path><ellipse cx="47.78" cy="410.3" rx="0.55" ry="0.31" style="fill:#fff;stroke:#263238;stroke-linecap:round;stroke-linejoin:round"></ellipse><ellipse cx="46.38" cy="403.89" rx="0.55" ry="0.47" style="fill:#fff;stroke:#263238;stroke-linecap:round;stroke-linejoin:round"></ellipse><ellipse cx="50.29" cy="406.31" rx="0.7" ry="0.55" style="fill:#fff;stroke:#263238;stroke-linecap:round;stroke-linejoin:round"></ellipse><path d="M102.76,413c0,.47-.56.86-1.26.86s-1.25-.39-1.25-.86.56-.86,1.25-.86S102.76,412.48,102.76,413Z" style="fill:#fff;stroke:#263238;stroke-linecap:round;stroke-linejoin:round"></path><path d="M107,415.46a.72.72,0,1,1-.71-.86A.8.8,0,0,1,107,415.46Z" style="fill:#fff;stroke:#263238;stroke-linecap:round;stroke-linejoin:round"></path><path d="M103.54,415.38c0,.17-.25.31-.55.31s-.55-.14-.55-.31.25-.31.55-.31S103.54,415.21,103.54,415.38Z" style="fill:#fff;stroke:#263238;stroke-linecap:round;stroke-linejoin:round"></path><path d="M102.13,409a.55.55,0,1,1-.55-.47A.51.51,0,0,1,102.13,409Z" style="fill:#fff;stroke:#263238;stroke-linecap:round;stroke-linejoin:round"></path><path d="M106.2,411.39a.64.64,0,0,1-.71.55.56.56,0,1,1,0-1.09A.64.64,0,0,1,106.2,411.39Z" style="fill:#fff;stroke:#263238;stroke-linecap:round;stroke-linejoin:round"></path><path d="M150.05,405.56c-.24-.41,0-1,.64-1.38s1.27-.31,1.51.09,0,1-.63,1.38A1.12,1.12,0,0,1,150.05,405.56Z" style="fill:#fff;stroke:#263238;stroke-linecap:round;stroke-linejoin:round"></path><path d="M145.15,405.57a.71.71,0,1,1,1,.38A.79.79,0,0,1,145.15,405.57Z" style="fill:#fff;stroke:#263238;stroke-linecap:round;stroke-linejoin:round"></path><path d="M148.14,403.88c-.09-.15.05-.4.31-.55s.54-.16.63,0-.05.4-.31.55S148.23,404,148.14,403.88Z" style="fill:#fff;stroke:#263238;stroke-linecap:round;stroke-linejoin:round"></path><path d="M152.63,408.66a.55.55,0,0,1,.94-.56.5.5,0,0,1-.23.68A.51.51,0,0,1,152.63,408.66Z" style="fill:#fff;stroke:#263238;stroke-linecap:round;stroke-linejoin:round"></path><path d="M147.9,408.66a.73.73,0,1,1,.89.11A.65.65,0,0,1,147.9,408.66Z" style="fill:#fff;stroke:#263238;stroke-linecap:round;stroke-linejoin:round"></path><ellipse cx="81.33" cy="408.68" rx="15.16" ry="12.25" style="fill:#fff;stroke:#263238;stroke-linecap:round;stroke-linejoin:round"></ellipse><ellipse cx="81.33" cy="407.51" rx="15.16" ry="12.25" style="fill:#fff;stroke:#263238;stroke-linecap:round;stroke-linejoin:round"></ellipse><path d="M88.28,399a12.39,12.39,0,0,0-6.12-1.94c-3.7-.2-4.38.19-3.8,1a5.81,5.81,0,0,1,.78,3.5c0,1.56-1.55,1.36-3.89.58s-2-2.43-4.76-.38-3.5,3.69-3.21,6.32,1,4,2.53,4,4.08-3,7.29-3.3,0,.68-1.26,3.11-2.63,3.4,1,4.86,7.87,1.65,10.4.29a3.63,3.63,0,0,0,1.56-5c-.59-.87-1.56-2.62-.59-2.82s4.09,3.89,5.55,2.43a6.46,6.46,0,0,0,.87-7.48c-1.65-2.63-3.5-.68-5.44-1.46s-2-1.17-1.37-1.75S89.06,399.68,88.28,399Z" style="fill:#fff;stroke:#263238;stroke-linecap:round;stroke-linejoin:round"></path><path d="M78.56,404.55s-2.34-.49-4.18-1-2.92,1.95-2.43,2.92,1.26.58,3,0,4.47-.19,5.15.49,0,2.33-.58,3.5,2.14,3.69,4.38,3.3,1.45-4.08,1.45-5.44.88-1.95,2-1.27,3.3,1.85,3.4-.09a2.61,2.61,0,0,0-2.43-2.92c-1.07,0-3.79.1-3.79-.58s3.11-3,.78-3.89-4.09.09-3.89,1.55.19,2.63-.59,3A6.34,6.34,0,0,1,78.56,404.55Z" style="fill:#fff;stroke:#263238;stroke-linecap:round;stroke-linejoin:round"></path><ellipse cx="128.24" cy="407.02" rx="12.73" ry="10.29" style="fill:#fff;stroke:#263238;stroke-linecap:round;stroke-linejoin:round"></ellipse><ellipse cx="128.24" cy="406.04" rx="12.73" ry="10.29" style="fill:#fff;stroke:#263238;stroke-linecap:round;stroke-linejoin:round"></ellipse><path d="M134.09,398.89a10.47,10.47,0,0,0-5.15-1.63c-3.1-.16-3.67.16-3.18.82a4.9,4.9,0,0,1,.65,2.94c0,1.3-1.31,1.14-3.27.49s-1.71-2-4-.33-2.94,3.1-2.7,5.31.82,3.35,2.13,3.35,3.43-2.53,6.12-2.78,0,.57-1.06,2.61-2.2,2.86.82,4.09,6.61,1.39,8.74.24a3,3,0,0,0,1.3-4.16c-.49-.74-1.3-2.21-.49-2.37s3.43,3.27,4.66,2a5.42,5.42,0,0,0,.73-6.29c-1.38-2.2-2.94-.57-4.57-1.22s-1.71-1-1.14-1.47S134.74,399.47,134.09,398.89Z" style="fill:#fff;stroke:#263238;stroke-linecap:round;stroke-linejoin:round"></path><path d="M125.92,403.55s-2-.41-3.51-.82-2.45,1.64-2,2.45,1.07.49,2.54,0,3.75-.16,4.33.41,0,2-.49,2.94,1.79,3.1,3.67,2.78,1.23-3.43,1.23-4.58.73-1.63,1.63-1.06,2.78,1.55,2.86-.08a2.2,2.2,0,0,0-2-2.45c-.9,0-3.19.08-3.19-.49s2.61-2.53.65-3.27-3.43.09-3.26,1.31.16,2.21-.49,2.53A5.36,5.36,0,0,1,125.92,403.55Z" style="fill:#fff;stroke:#263238;stroke-linecap:round;stroke-linejoin:round"></path><path d="M149.27,381.14s2.15,4.3,5.16,9-2.58,5.16-6,10.32-.86,8.6-9.89,7.74-8.6-5.59-13.76-2.58-9.89,7.31-15.48,3.87-8.6-3.87-12.46-1.29-8.6,6.45-15,2.15-8.6-3-14.19,1.72-12,2.15-13.76-3.87-3.44-3.44-8.6-7.74-.43-9.46-.43-9.46l2.47-.62s4.36,5.1,14.55,7.76,57,1.22,63.53-.24,11.15-1.94,14.54-5.82a95.47,95.47,0,0,0,7.52-10.67S147.25,379.14,149.27,381.14Z" style="fill:#FF6601;stroke:#263238;stroke-linecap:round;stroke-linejoin:round"></path><path d="M72.07,402.84a10.59,10.59,0,0,0-3,4.07c-.86,2.35-.65,4.06-4.28,5.56" style="fill:none;stroke:#263238;stroke-linecap:round;stroke-linejoin:round"></path><path d="M60.51,401.13a33.77,33.77,0,0,1-5.35,2.78" style="fill:none;stroke:#263238;stroke-linecap:round;stroke-linejoin:round"></path><path d="M93.7,402.2a12.12,12.12,0,0,1,1.07,4.92" style="fill:none;stroke:#263238;stroke-linecap:round;stroke-linejoin:round"></path><path d="M144,388.49s4.49,1.29,6.64,3a3.37,3.37,0,0,0,3.85.64" style="fill:none;stroke:#263238;stroke-linecap:round;stroke-linejoin:round"></path><path d="M128.81,401.34s2.78.21,5.56,3.85,10.2,2,10.78.38" style="fill:none;stroke:#263238;stroke-linecap:round;stroke-linejoin:round"></path><path d="M99.91,404.77s6.2-1.08,9.84,1.07,5.78,4.49,10.07,1.07" style="fill:none;stroke:#263238;stroke-linecap:round;stroke-linejoin:round"></path><path d="M149.38,373.61c0,32.32-24,28.05-53.66,28.05s-53.67,6.1-53.67-28.05c0-19.87,24-36,53.67-36S149.38,353.74,149.38,373.61Z" style="fill:#fff;stroke:#263238;stroke-linecap:round;stroke-linejoin:round"></path><path d="M92.87,354.85s-1.81,2.08-4.05,2.08-4-2.08-4-2.08,1.81-2.08,4-2.08S92.87,354.85,92.87,354.85Z" style="fill:#fff;stroke:#263238;stroke-linecap:round;stroke-linejoin:round"></path><path d="M110.38,349.82s-1.82,2.08-4,2.08-4-2.08-4-2.08,1.81-2.08,4-2.08S110.38,349.82,110.38,349.82Z" style="fill:#fff;stroke:#263238;stroke-linecap:round;stroke-linejoin:round"></path><path d="M122.19,347.41s-1.81,2.08-4,2.08-4-2.08-4-2.08,1.81-2.08,4-2.08S122.19,347.41,122.19,347.41Z" style="fill:#fff;stroke:#263238;stroke-linecap:round;stroke-linejoin:round"></path><path d="M77,349.82S75.2,351.9,73,351.9s-4-2.08-4-2.08,1.82-2.08,4-2.08S77,349.82,77,349.82Z" style="fill:#fff;stroke:#263238;stroke-linecap:round;stroke-linejoin:round"></path><path d="M68.59,358.57s-1.82,2.08-4,2.08-4.05-2.08-4.05-2.08,1.81-2.08,4.05-2.08S68.59,358.57,68.59,358.57Z" style="fill:#fff;stroke:#263238;stroke-linecap:round;stroke-linejoin:round"></path><path d="M85.54,362.62s-1.81,2.08-4,2.08-4-2.08-4-2.08,1.81-2.08,4-2.08S85.54,362.62,85.54,362.62Z" style="fill:#fff;stroke:#263238;stroke-linecap:round;stroke-linejoin:round"></path><path d="M58.19,364.81s-1.81,2.07-4,2.07a6.27,6.27,0,0,1-4-2.07s1.81-2.08,4-2.08S58.19,364.81,58.19,364.81Z" style="fill:#fff;stroke:#263238;stroke-linecap:round;stroke-linejoin:round"></path><path d="M93.86,345.55s-1.82,2.08-4,2.08-4-2.08-4-2.08,1.81-2.08,4-2.08S93.86,345.55,93.86,345.55Z" style="fill:#fff;stroke:#263238;stroke-linecap:round;stroke-linejoin:round"></path><path d="M121.86,355.4s-1.81,2.08-4,2.08-4-2.08-4-2.08,1.81-2.08,4-2.08S121.86,355.4,121.86,355.4Z" style="fill:#fff;stroke:#263238;stroke-linecap:round;stroke-linejoin:round"></path><path d="M130.83,360.87s-1.81,2.08-4,2.08-4.05-2.08-4.05-2.08,1.81-2.08,4.05-2.08S130.83,360.87,130.83,360.87Z" style="fill:#fff;stroke:#263238;stroke-linecap:round;stroke-linejoin:round"></path><path d="M106.55,361s-1.82,2.08-4,2.08-4-2.08-4-2.08,1.81-2.08,4-2.08S106.55,361,106.55,361Z" style="fill:#fff;stroke:#263238;stroke-linecap:round;stroke-linejoin:round"></path><path d="M131.82,391c-7.2,3.77-7.54.34-11.31,0s-7.21,1.37-16.46,2.4-8.24-1-13.72-2.4-7.55,3.09-15.09,3.09S67.69,391,61.86,391s-6.17,1-11.66-1.37a52.27,52.27,0,0,1-6.61-3.27c5.74,19.75,25.78,17.84,51,17.84,25.64,0,48.2.69,53.51-19.38C145,384.55,138.9,387.25,131.82,391Z" style="fill:#fff;stroke:#263238;stroke-linecap:round;stroke-linejoin:round"></path></g><g id="freepik--Pizza--inject-94"><path d="M106.39,222.05c-3.68-3.53-7.94-5.9-12.39-5.71-4.66.21-8.58,3.7-8.58,3.7S80,217,74.33,219a17.62,17.62,0,0,0-8.22,5.59s-6.9-1.32-11.23,1.22a12.46,12.46,0,0,0-5.49,6.67s-8.86.43-13.29,4.83-5.51,7.12-5.51,7.12a11.84,11.84,0,0,0,2.25,9.43c3.48,4.38,6.34,3.15,10.76,7.11s17.89,12.64,34.84,25.21,33.33,19.08,41.15,28.82,12.35,11.86,17.73,15.41,6.44-7.07,3.49-12.35,2.74-15.66-5.79-37.52-16.2-34.39-17.33-39.11A43.94,43.94,0,0,0,106.39,222.05Z" style="fill:#fff;stroke:#263238;stroke-linecap:round;stroke-linejoin:round"></path><path d="M30.59,244.38s1.86-8.26,12.74-3.46S52,253,55.4,257.87,75.7,268.78,80.87,276s16.48,14.84,21,17.88,17.61,15.44,22.11,18,9.35,7.5,11,10.39,2.42,6.64,3.89,5.33,1.94-9.65,1.94-9.65" style="fill:none;stroke:#263238;stroke-linecap:round;stroke-linejoin:round"></path><path d="M54.06,248.5s-.3-2.81,9.1-4.6,10.23-8.26,15-10.32,14.44-.58,17.23-.42,6.1-1,7.51-1.44,7-4.55,7-4.55" style="fill:none;stroke:#263238;stroke-linecap:round;stroke-linejoin:round"></path><path d="M77.25,247.63c-3,1.09-5.21,3.11-5.62,6.31-.8,6.12,9,13.16,14.53,10.78,2.86-1.24,13.19-11.35,10.1-14.31C92.75,247,83.39,245.38,77.25,247.63Z" style="fill:#FF6601;stroke:#263238;stroke-linecap:round;stroke-linejoin:round"></path><path d="M112.23,264.12a26.69,26.69,0,0,0-6.22.34c-2.4.42-5.71.77-6,3.53-.37,3.16,5,6.15,7.49,6.3,3.24.18,12.67-2.08,12.36-4.89C119.43,265.67,115.88,264.38,112.23,264.12Z" style="fill:#FF6601;stroke:#263238;stroke-linecap:round;stroke-linejoin:round"></path><path d="M110.79,248.5c-2.91.21-5.2,1.51-3.46,3.46,3.5,3.92,10.56,2.46,10.66.6C118.16,249.4,114.09,248.25,110.79,248.5Z" style="fill:#FF6601;stroke:#263238;stroke-linecap:round;stroke-linejoin:round"></path><path d="M115.47,287.88c-2.74-.46-5.39.78-4.82,4.25.69,4.22,8.45,6.52,9.52,4.26C122.43,291.62,118.88,288.45,115.47,287.88Z" style="fill:#FF6601;stroke:#263238;stroke-linecap:round;stroke-linejoin:round"></path><path d="M49.39,232.43S60.28,228.86,64,237" style="fill:none;stroke:#263238;stroke-linecap:round;stroke-linejoin:round;stroke-width:0.5px"></path><path d="M71.07,227.14s5.49,1.7,6.28,4.07" style="fill:none;stroke:#263238;stroke-linecap:round;stroke-linejoin:round;stroke-width:0.5px"></path><path d="M84.91,221s5.48,1.7,6.28,4.07" style="fill:none;stroke:#263238;stroke-linecap:round;stroke-linejoin:round;stroke-width:0.5px"></path><path d="M48.93,257S41.4,242.2,38,245.27s-2.63,5.43,1.88,8S52,260.93,54.23,262,48.93,257,48.93,257Z" style="fill:#fff;stroke:#263238;stroke-linecap:round;stroke-linejoin:round"></path></g><g id="freepik--hot-dog--inject-94"><path d="M27.73,172a23.78,23.78,0,0,1,6.6-20.83c9.24-9.33,20.32-8,32.2-9.58s54.25-14.12,62.34-15.2c16.29-2.17,18.73,7,17.12,11.06,0,0,9.53,4.44,10.12,9.72s-1.46,9.67-2.34,12.89-22.87,20.82-41.34,28.15-49.25,9.67-56.58,10.26-14.07-1.76-22-10.85S27.73,172,27.73,172Z" style="fill:#fff;stroke:#263238;stroke-linecap:round;stroke-linejoin:round"></path><path d="M42.11,163.93s2.49-6.55,14.14-10.24,20-3.06,39.33-8.34,29.43-13.43,38.28-12.21,8.48,3.83,8.48,3.83" style="fill:none;stroke:#263238;stroke-linecap:round;stroke-linejoin:round"></path><path d="M156.17,155.85c5.26-3.52,4.46-14-3-16.85-5.27-2-17.58-.82-28.37,1.91-5.41,1.37-58.17,14.22-62.7,16.25s-29.6,7-34.4,14.86,2.53,16.25,8.18,17.56,14.76-3.26,14.76-3.26,6.74-6.75,13.86-8.15S156.17,155.85,156.17,155.85Z" style="fill:#FF6601;stroke:#263238;stroke-linecap:round;stroke-linejoin:round"></path><path d="M49.63,178a74.73,74.73,0,0,1-9.86-.75A2.66,2.66,0,1,1,40.5,172c6.52.9,13.29.89,15.25,0a28.72,28.72,0,0,0-.69-2.82c-.81-2.85-1.72-6.09.3-8.41,1.85-2.12,4.92-2,7.07-1.67a35.61,35.61,0,0,1,9,2.73c4.07,1.68,5.58,2.18,7.62.46,1.61-1.36,2.08-2.91,2.62-4.71.89-2.92,2.1-6.92,9-7.25A28.56,28.56,0,0,1,103,152.68a25.36,25.36,0,0,0,7.58,1.95h.26a17.56,17.56,0,0,0-.28-2.3c-.37-2.25-.83-5,.79-7.12a5.57,5.57,0,0,1,4.11-2.05c4.78-.42,8.51.93,12.12,2.24a31.7,31.7,0,0,0,6.48,1.86c1.06.14,1.1.15,1.75-2.09.61-2.06,1.61-5.51,5.66-5.84,5.18-.42,7.61.43,8,.6a2.66,2.66,0,0,1-2,4.93h0a16.43,16.43,0,0,0-5.63-.23.77.77,0,0,0-.2,0,6.61,6.61,0,0,0-.79,2c-.63,2.15-1.94,6.64-7.58,5.86a36.22,36.22,0,0,1-7.56-2.13c-3.21-1.16-6.23-2.26-9.83-1.94a2.35,2.35,0,0,0-.39.07,11.42,11.42,0,0,0,.25,2.95c.39,2.33.82,5-.92,6.89a5.46,5.46,0,0,1-4.65,1.56,30.16,30.16,0,0,1-9.09-2.27c-3.06-1.15-6-2.22-10.17-2-3.17.15-3.39.86-4.18,3.48a13.79,13.79,0,0,1-4.28,7.23c-4.62,3.89-8.92,2.11-13.08.39a30.22,30.22,0,0,0-7.73-2.38,7,7,0,0,0-2.26-.05,16.11,16.11,0,0,0,.73,3.42,23.56,23.56,0,0,1,.95,4.42,4.3,4.3,0,0,1-1.37,3.52C57.85,177.45,53.77,178,49.63,178Z" style="fill:#fff;stroke:#263238;stroke-linecap:round;stroke-linejoin:round"></path><path d="M33.26,175.93s-3.36,1.43-3.13,4.31a1.75,1.75,0,0,1-2.66-1.31" style="fill:none;stroke:#263238;stroke-linecap:round;stroke-linejoin:round;stroke-width:0.5px"></path><path d="M30.27,181.53s-.26,1.86,2.58,1.94" style="fill:none;stroke:#263238;stroke-linecap:round;stroke-linejoin:round;stroke-width:0.5px"></path><path d="M51,197.35c2.72,1.71,7.26,2,11.73,1.77a246.73,246.73,0,0,0,46.68-6.75C126,188.23,148.45,182,157.45,166c1.69-3,6-11.92-1.28-10.19-.27.06-83.35,19.76-91.64,22.32s-12.4,5.66-13.83,8.11C47.26,192.2,48.09,195.56,51,197.35Z" style="fill:#fff;stroke:#263238;stroke-linecap:round;stroke-linejoin:round"></path></g><g id="freepik--french-fries--inject-94"><path d="M107.16,52.56s6.94-5.25,10.7-10.88S129.11,28.92,130.24,28s3-.19,3.75.56.75,1.88.19,3.38-8.82,9.2-12.76,13.7a100.21,100.21,0,0,0-7.13,9.19,43.85,43.85,0,0,1-3.38,3.76Z" style="fill:#fff;stroke:#263238;stroke-linecap:round;stroke-linejoin:round"></path><path d="M134,28.54a9.44,9.44,0,0,0-6.75,5.07c-2.63,4.69-9.76,12.39-11.07,14.64a36.78,36.78,0,0,1-4.51,5.44" style="fill:none;stroke:#263238;stroke-linecap:round;stroke-linejoin:round;stroke-width:0.5px"></path><path d="M120,55.43s-11.28,8.4-16.87,14.22S92.54,80,90.33,82.18s-1.79,3.16-3.7,3.25-4.34-2.72-4.55-3.89,5.76-6.93,8.85-9.89,12.08-11.31,15.65-15,8.14-6.4,9.45-7.53,16.31-13,17.69-13.34,4.34,4,4.79,4.87S120,55.43,120,55.43Z" style="fill:#fff;stroke:#263238;stroke-linecap:round;stroke-linejoin:round"></path><path d="M83.72,83.3s1.25.56,2.4-2.11S94.35,70.26,100,65.39s13.94-11,17.22-14,6.46-5.32,8.59-6.9a48,48,0,0,1,8.67-4.8,9.44,9.44,0,0,0,2.44-1.16" style="fill:none;stroke:#263238;stroke-linecap:round;stroke-linejoin:round;stroke-width:0.5px"></path><path d="M86,44.12s6.94-5.26,10.69-10.88S107.91,20.48,109,19.54s3-.19,3.75.56.75,1.88.19,3.38-8.82,9.19-12.76,13.7a100.21,100.21,0,0,0-7.13,9.19,44.85,44.85,0,0,1-3.38,3.75Z" style="fill:#fff;stroke:#263238;stroke-linecap:round;stroke-linejoin:round"></path><path d="M112.79,20.1A9.45,9.45,0,0,0,106,25.17C103.41,29.86,96.28,37.55,95,39.8a36.3,36.3,0,0,1-4.5,5.44" style="fill:none;stroke:#263238;stroke-linecap:round;stroke-linejoin:round;stroke-width:0.5px"></path><path d="M89.71,54.06s10-9.94,14.64-16.51,9-11.82,10.88-14.26,1.31-3.38,3.19-3.75,4.69,2.06,5.07,3.19-4.7,7.69-7.32,11.07-10.32,13-13.32,17.07-7.14,7.51-8.26,8.82S80.33,74.89,79,75.45s-4.87-3.37-5.44-4.12S89.71,54.06,89.71,54.06Z" style="fill:#fff;stroke:#263238;stroke-linecap:round;stroke-linejoin:round"></path><path d="M121.61,21.23s-1.31-.38-2.06,2.44S113,35.67,108.1,41.3s-12.2,13-15,16.33-5.63,6.19-7.51,8.07a48.89,48.89,0,0,1-7.88,6,9.28,9.28,0,0,0-2.25,1.5" style="fill:none;stroke:#263238;stroke-linecap:round;stroke-linejoin:round;stroke-width:0.5px"></path><path d="M114.48,74.89s9.94-9.94,14.63-16.51,9-11.82,10.89-14.26,1.31-3.38,3.19-3.75,4.69,2.06,5.06,3.19-4.69,7.69-7.31,11.07S130.62,67.57,127.61,71.7s-7.13,7.51-8.25,8.82-14.26,15.2-15.58,15.76-4.88-3.37-5.44-4.12S114.48,74.89,114.48,74.89Z" style="fill:#fff;stroke:#263238;stroke-linecap:round;stroke-linejoin:round"></path><path d="M146.38,42.05s-1.32-.37-2.07,2.44-6.56,12-11.44,17.64-12.2,12.95-15,16.33-5.63,6.19-7.51,8.07a49.33,49.33,0,0,1-7.88,6,9.28,9.28,0,0,0-2.25,1.5" style="fill:none;stroke:#263238;stroke-linecap:round;stroke-linejoin:round;stroke-width:0.5px"></path><path d="M90.09,69.26s9.94-9.94,14.63-16.51,9-11.82,10.88-14.26,1.32-3.38,3.19-3.75,4.7,2.06,5.07,3.19-4.69,7.69-7.32,11.07-10.32,12.94-13.32,17.07S96.09,73.58,95,74.89,80.7,90.09,79.39,90.65,74.51,87.28,74,86.53,90.09,69.26,90.09,69.26Z" style="fill:#fff;stroke:#263238;stroke-linecap:round;stroke-linejoin:round"></path><path d="M122,36.43s-1.31-.38-2.06,2.43-6.57,12-11.45,17.64-12.19,13-15,16.33S87.83,79,86,80.9a49.33,49.33,0,0,1-7.88,6,9.51,9.51,0,0,0-2.26,1.5" style="fill:none;stroke:#263238;stroke-linecap:round;stroke-linejoin:round;stroke-width:0.5px"></path><path d="M94.58,68.4s13.08-5.17,20-9.32,13-7.27,15.66-8.76,2.55-2.57,4.42-2.17,3.48,3.76,3.38,4.94-7.37,5.19-11.12,7.25-14.62,7.77-19,10.36-9.53,4-11.08,4.81-19.13,8.27-20.56,8.26-3.13-5-3.35-6S94.58,68.4,94.58,68.4Z" style="fill:#fff;stroke:#263238;stroke-linecap:round;stroke-linejoin:round"></path><path d="M136.92,51s-1.06-.87-2.87,1.42-10.8,8.4-17.52,11.62-16.34,7-20.27,9-7.62,3.44-10.09,4.41a48.49,48.49,0,0,1-9.62,2.37,9.31,9.31,0,0,0-2.67.48" style="fill:none;stroke:#263238;stroke-linecap:round;stroke-linejoin:round;stroke-width:0.5px"></path><path d="M125.1,69.94s-12.55,6.36-19,11.14S93.82,89.52,91.27,91.25s-2.29,2.8-4.19,2.58-3.82-3.42-3.83-4.61S90.1,83.37,93.65,81s13.83-9.09,18-12.08,9.11-4.92,10.59-5.82,18.28-10,19.7-10.14,3.59,4.73,3.89,5.62S125.1,69.94,125.1,69.94Z" style="fill:#fff;stroke:#263238;stroke-linecap:round;stroke-linejoin:round"></path><path d="M84.57,91.23s1.13.76,2.72-1.68,10-9.37,16.36-13.2S119.27,67.83,123,65.5s7.27-4.14,9.64-5.34A48.41,48.41,0,0,1,142,56.91a9.24,9.24,0,0,0,2.6-.73" style="fill:none;stroke:#263238;stroke-linecap:round;stroke-linejoin:round;stroke-width:0.5px"></path><path d="M113,41.72s-10.78,9-16,15.15-10,11-12.1,13.25-1.6,3.25-3.5,3.45S76.91,71.1,76.63,70,82,62.7,84.9,59.57s11.42-12,14.77-15.84,7.77-6.84,9-8,15.54-13.88,16.9-14.33,4.56,3.8,5.06,4.59S113,41.72,113,41.72Z" style="fill:#fff;stroke:#263238;stroke-linecap:round;stroke-linejoin:round"></path><path d="M78.37,71.61s1.27.49,2.27-2.25S88.24,58,93.6,52.8,106.89,41,110,37.87s6.15-5.68,8.19-7.38a48.55,48.55,0,0,1,8.38-5.28,9.33,9.33,0,0,0,2.37-1.3" style="fill:none;stroke:#263238;stroke-linecap:round;stroke-linejoin:round;stroke-width:0.5px"></path><path d="M124,82.08s-11.28,8.4-16.87,14.22-10.63,10.39-12.84,12.53-1.79,3.15-3.7,3.25-4.34-2.72-4.55-3.89,5.76-6.93,8.85-9.89S107,87,110.52,83.33s8.15-6.39,9.45-7.53,16.31-13,17.69-13.34,4.34,4.05,4.79,4.87S124,82.08,124,82.08Z" style="fill:#fff;stroke:#263238;stroke-linecap:round;stroke-linejoin:round"></path><path d="M87.66,110s1.25.56,2.4-2.12S98.29,96.9,103.94,92s13.94-11.05,17.22-14,6.46-5.31,8.59-6.9a48.56,48.56,0,0,1,8.67-4.79,9.44,9.44,0,0,0,2.44-1.16" style="fill:none;stroke:#263238;stroke-linecap:round;stroke-linejoin:round;stroke-width:0.5px"></path><path d="M135.75,77.17c.71,1.3-45,37.32-47.29,38s-7.66.67-16.65-3.3S53.26,100.07,53.15,96.76,51.05,87,52.16,85,87.23,41.63,87.23,41.63s2.48,1.14,4.6,5c0,0,.38.77.8,1.88h0c.72,1.89,1.58,4.75.86,6.33a16.61,16.61,0,0,0-.87,4.52h0c-.48,5.91.52,15.79,8.6,21.53a19,19,0,0,0,15.46,3.33h0a29.06,29.06,0,0,0,7.78-2.91l0,0c1.47-.77,2.73-1.57,3.78-2.23C133.52,75.79,135.05,75.86,135.75,77.17Z" style="fill:#FF6601;stroke:#263238;stroke-linecap:round;stroke-linejoin:round"></path><line x1="75.42" y1="71.9" x2="53.16" y2="96.75" style="fill:none;stroke:#263238;stroke-linecap:round;stroke-linejoin:round;stroke-width:0.5px"></line><line x1="77.81" y1="69.71" x2="86.39" y2="59.92" style="fill:none;stroke:#263238;stroke-linecap:round;stroke-linejoin:round;stroke-width:0.5px"></line><path d="M92.63,48.57c0,.11-.08.22-.12.31" style="fill:none;stroke:#263238;stroke-linecap:round;stroke-linejoin:round;stroke-width:0.5px"></path><path d="M92.62,59.43l-.11.15" style="fill:none;stroke:#263238;stroke-linecap:round;stroke-linejoin:round;stroke-width:0.5px"></path></g><g id="freepik--Shadow--inject-94"><ellipse cx="266.28" cy="455.63" rx="70.94" ry="12.8" style="fill:#263238;stroke:#263238;stroke-linecap:round;stroke-linejoin:round"></ellipse></g><g id="freepik--Character--inject-94"><path d="M229.9,101s-16.32,10.57-11.49,23,34.45,18.13,43.82,14.5,6.64-18.43,6-19.33,11.18-14.2,11.18-15.72,1.21-10.27,1.21-10.27,8.16-.91,11.78-7.25-3-20.55-10-26-15.41-10.27-32.93-5.74S216.6,75,218.41,85,229.9,101,229.9,101Z" style="fill:#263238;stroke:#263238;stroke-linecap:round;stroke-linejoin:round"></path><path d="M217.16,238.76s-5.91,17.74-6.61,34.1,13.57,41.39,13.57,47.31.35,7.65.35,15.65-3.13,14.27,2.09,35.14,13.91,56,13.91,57.75-2.78,12.52-4.87,15.3-5.56,6.27-3.48,8.35,18.44,2.44,20.53,1.05,2.43-8.7,2.43-14.61-1.74-16-1.74-21.57,3.48-65.75,3.48-65.75L261,287.81s7.65,58.45,9,71.32,14.27,59.14,15,62.62,3.13,27.48,3.48,29.22,2.44,2.79,4.17,2.79,15,2.78,16.36-1.4-4.53-11.82-5.57-16.35-4.18-10.43-4.18-15,6.27-47.66,4.18-63.31-6.61-34.09-5.92-37.92,9.05-39,7.66-52.88-3.33-25.1-3.33-25.1l-2.93-5.51-77.23-4.18Z" style="fill:#fff;stroke:#263238;stroke-linecap:round;stroke-linejoin:round"></path><path d="M247.43,425.92c-3.48-2.43-7.31,5.57-7.31,5.57l-.14,0c-.89,3.91-2.82,10.41-4.38,12.48-2.09,2.79-5.56,6.27-3.48,8.35s18.44,2.44,20.53,1.05,2.43-8.7,2.43-14.61c0-1.67-.14-3.67-.34-5.81l-1.4.59S250.91,428.36,247.43,425.92Z" style="fill:#fff;stroke:#263238;stroke-linecap:round;stroke-linejoin:round"></path><path d="M300.91,428.39c-1.61-1.68-4.67-4-7.56-1.07-4.17,4.17-4.52,6.26-4.52,6.26l-2.41-.56c.89,7.84,1.85,16.91,2.06,18,.35,1.74,2.44,2.79,4.17,2.79s15,2.78,16.36-1.4-4.53-11.82-5.57-16.35C302.91,433.71,301.83,431.05,300.91,428.39Z" style="fill:#fff;stroke:#263238;stroke-linecap:round;stroke-linejoin:round"></path><path d="M301.44,400.34c1.57-14.76,3.22-33.41,2-42.6-2.09-15.66-6.61-34.09-5.92-37.92s9.05-39,7.66-52.88-3.33-25.1-3.33-25.1l-2.93-5.51-77.23-4.18-4.53,6.61s-5.91,17.74-6.61,34.1,13.57,41.39,13.57,47.31.35,7.65.35,15.65-3.13,14.27,2.09,35.14c2.18,8.74,5,20,7.49,30.23a80.42,80.42,0,0,0,19.91,2c1-19.47,2.86-51.67,2.86-51.67L261,287.81s7.65,58.45,9,71.32c.84,7.72,5.8,27.44,9.79,42.74C286.61,402.56,294.75,402.61,301.44,400.34Z" style="fill:#263238;stroke:#263238;stroke-linecap:round;stroke-linejoin:round"></path><path d="M250,115.52s-.51,15.21-.77,17.79-3.87,4.38-10,4.89-22.43-1.54-27.59,3.1-21.65,40.47-20.88,43,6.19,6.7,12.12,3.61,19.33-15.21,19.33-15.21L228,208.67l-11.43,32.91s26.81,6.7,48.47,5.15a282.7,282.7,0,0,0,36.86-4.89s-5.35-21.93-8.45-26.06-5.73-13.39-5.73-13.39l7.22-31.19S322,191.82,323,192.08s14.95,3.87,15.21-5.67-5.27-13.57-5.27-13.57-25.15-29-30.82-31.54-26.81-2.84-29.39-4.64-2.06-11.34-2.06-11.34Z" style="fill:#fff;stroke:#263238;stroke-linecap:round;stroke-linejoin:round"></path><path d="M265.43,136a15,15,0,0,0,5.79-2.19,36.06,36.06,0,0,1-.56-8.44L250,115.52s-.14,4.25-.31,8.65C253.49,129.36,259.86,136.67,265.43,136Z" style="fill:#263238"></path><path d="M302.11,141.3c-4.45-2-18.43-2.62-25.49-3.65-2.75,4.9-8.18,12.5-15.5,12.67-9.12.22-18.05-9.25-20.64-12.25-.41.05-.84.1-1.27.13-6.19.52-22.43-1.54-27.59,3.1-2.5,2.25-7.66,11.84-12.24,21.41,1.53.43,3.35.94,5.54,1.53A36.65,36.65,0,0,1,220.83,174c.86-.75,1.36-1.21,1.36-1.21L228,208.67l-11.43,32.91s26.81,6.7,48.47,5.15a282.7,282.7,0,0,0,36.86-4.89s-5.35-21.93-8.45-26.06-5.73-13.39-5.73-13.39l7.22-31.19s4.4,3.36,9.73,7.38l17.32-17.78C315.57,153,305.59,142.88,302.11,141.3Z" style="fill:#FF6601;stroke:#263238;stroke-linecap:round;stroke-linejoin:round"></path><path d="M267.32,200.12c-6,6.08-15,14.85-22.11,20.55" style="fill:none;stroke:#263238;stroke-linecap:round;stroke-linejoin:round"></path><path d="M274,193.25s-1.45,1.54-3.82,4" style="fill:none;stroke:#263238;stroke-linecap:round;stroke-linejoin:round"></path><path d="M249.28,211.53S238.44,220,233,224.4" style="fill:none;stroke:#263238;stroke-linecap:round;stroke-linejoin:round"></path><path d="M321.53,181s-25.4,37.23-26.09,39.31,1,4.87,1.74,7,2.43,12.53,5.91,12.53,9.74-2.44,10.09-4.18-.35-4.52-1.39-4.52-1.39,2.09-1.39,2.09l-.35,1.39-2.44-1.74s1.05-1,1.4-5.57-3.48-8-3.48-8,37.22-29.22,37.22-34.09-9.82-12.35-9.82-12.35" style="fill:#fff;stroke:#263238;stroke-linecap:round;stroke-linejoin:round"></path><path d="M269.37,74.79a196.77,196.77,0,0,1-14.18,14.95A63.78,63.78,0,0,1,240,100.05l1,1.81s-5.93-2.07-5.67,2.06,5.41,7,6.44,7.22a10.05,10.05,0,0,0,2.07.25c.46,0,4,5.63,4.73,6.42,3.84,4.23,8.6,8.59,14.12,10.45,13.2,4.45,20.33-11.87,20.33-22.54,0-5.67.26-16.24.26-16.24S271.69,77.62,269.37,74.79Z" style="fill:#fff;stroke:#263238;stroke-linecap:round;stroke-linejoin:round"></path><path d="M270.14,91.29s-.51,5.15,1,7.22,4.9,2.32,3.87,4.12-4.12,2.84-4.12,2.84" style="fill:none;stroke:#263238;stroke-linecap:round;stroke-linejoin:round"></path><path d="M257.77,106s3.86,5.16,12.11,2.84" style="fill:none;stroke:#263238;stroke-linecap:round;stroke-linejoin:round"></path><path d="M260.86,95.93c0,1.28-.58,2.32-1.29,2.32s-1.29-1-1.29-2.32.58-2.32,1.29-2.32S260.86,94.65,260.86,95.93Z" style="fill:#263238"></path><path d="M275.56,95.15c0,1.29-.58,2.32-1.29,2.32s-1.29-1-1.29-2.32.57-2.32,1.29-2.32S275.56,93.87,275.56,95.15Z" style="fill:#263238"></path><path d="M253.13,92.06s3.61-6.7,10.57-4.12" style="fill:none;stroke:#263238;stroke-linecap:round;stroke-linejoin:round"></path><path d="M269.37,85.87s4.38-4.64,10.57,0" style="fill:none;stroke:#263238;stroke-linecap:round;stroke-linejoin:round"></path><path d="M258.37,133.89s3.83-4.41,7.06-5.59,5-4.11,3.82-4.7-1.76-1.47-7.35,1.18-9.11,5.58-9.11,8.82-2.94,16.76-3.83,18.82-3.82,8.82-19.4,14.7-29.41,5.88-35.88,9.7-10.29,15.29-6.76,19.7,15.88,2.06,20.58.3,27.06-17.35,33.23-22.64,12.94-12.35,12.94-12.35,3.82-.89,5.88-2.65a25.25,25.25,0,0,0,4.12-5.29,1.85,1.85,0,0,0,2.94-.59c1.17-2.06,3.23-8.23,3.23-11.76a5.28,5.28,0,0,0-4.41-5.59A57.77,57.77,0,0,1,258.37,133.89Z" style="fill:#fff;stroke:#263238;stroke-linecap:round;stroke-linejoin:round"></path><path d="M260.42,145.24s4-.14,5.57,0,2.65.14,2.65,1.81" style="fill:#fff;stroke:#263238;stroke-linecap:round;stroke-linejoin:round"></path><path d="M259.44,139.94s8.92.14,9.48,1a7.76,7.76,0,0,1,.84,2.37" style="fill:#fff;stroke:#263238;stroke-linecap:round;stroke-linejoin:round"></path><line x1="263.67" y1="153.89" x2="263.76" y2="151.65" style="fill:#fff;stroke:#263238;stroke-linecap:round;stroke-linejoin:round"></line></g></svg>