<svg xmlns="http://www.w3.org/2000/svg" fill="none" viewBox="0 0 24 24" id="Scan">
  <path fill="#48aca2" fill-rule="evenodd" d="M2.25 5C2.25 3.48122 3.48122 2.25 5 2.25H7.5V3.75H5C4.30964 3.75 3.75 4.30964 3.75 5V7.5H2.25V5zM19 3.75H16.5V2.25H19C20.5188 2.25 21.75 3.48122 21.75 5V7.5H20.25V5C20.25 4.30964 19.6904 3.75 19 3.75zM3.75 16.5V19C3.75 19.6904 4.30964 20.25 5 20.25H7.5V21.75H5C3.48122 21.75 2.25 20.5188 2.25 19V16.5H3.75zM20.25 19V16.5H21.75V19C21.75 20.5188 20.5188 21.75 19 21.75H16.5V20.25H19C19.6904 20.25 20.25 19.6904 20.25 19zM17 12.75H7V11.25H17V12.75z" clip-rule="evenodd" class="color000000 svgShape"></path>
</svg>
