<svg width="372" height="404" viewBox="0 0 372 404" fill="none" xmlns="http://www.w3.org/2000/svg">
<rect x="5.25" y="4.5271" width="90.1828" height="98.6773" stroke="#C1C1C1" stroke-opacity="0.54" stroke-width="0.5"/>
<rect x="5.25" y="103.073" width="90.1828" height="98.6773" stroke="#C1C1C1" stroke-opacity="0.54" stroke-width="0.5"/>
<rect x="5.25" y="201.618" width="90.1828" height="98.6773" stroke="#C1C1C1" stroke-opacity="0.54" stroke-width="0.5"/>
<rect x="5.25" y="300.164" width="90.1828" height="98.6773" stroke="#C1C1C1" stroke-opacity="0.54" stroke-width="0.5"/>
<rect x="95.9329" y="4.5271" width="90.1828" height="98.6773" stroke="#C1C1C1" stroke-opacity="0.54" stroke-width="0.5"/>
<rect x="95.9329" y="103.073" width="90.1828" height="98.6773" stroke="#C1C1C1" stroke-opacity="0.54" stroke-width="0.5"/>
<rect x="95.9329" y="201.618" width="90.1828" height="98.6773" stroke="#C1C1C1" stroke-opacity="0.54" stroke-width="0.5"/>
<rect x="95.9329" y="300.164" width="90.1828" height="98.6773" stroke="#C1C1C1" stroke-opacity="0.54" stroke-width="0.5"/>
<rect x="186.616" y="4.5271" width="90.1828" height="98.6773" stroke="#C1C1C1" stroke-opacity="0.54" stroke-width="0.5"/>
<rect x="186.616" y="103.073" width="90.1828" height="98.6773" stroke="#C1C1C1" stroke-opacity="0.54" stroke-width="0.5"/>
<rect x="186.616" y="201.618" width="90.1828" height="98.6773" stroke="#C1C1C1" stroke-opacity="0.54" stroke-width="0.5"/>
<rect x="186.616" y="300.164" width="90.1828" height="98.6773" stroke="#C1C1C1" stroke-opacity="0.54" stroke-width="0.5"/>
<rect x="277.298" y="4.5271" width="90.1828" height="98.6773" stroke="#C1C1C1" stroke-opacity="0.54" stroke-width="0.5"/>
<rect x="277.298" y="103.073" width="90.1828" height="98.6773" stroke="#C1C1C1" stroke-opacity="0.54" stroke-width="0.5"/>
<rect x="277.298" y="201.618" width="90.1828" height="98.6773" stroke="#C1C1C1" stroke-opacity="0.54" stroke-width="0.5"/>
<rect x="277.298" y="300.164" width="90.1828" height="98.6773" stroke="#C1C1C1" stroke-opacity="0.54" stroke-width="0.5"/>
<rect x="4" y="3.2771" width="364.731" height="396.182" rx="9" stroke="#C1C1C1" stroke-opacity="0.54" stroke-width="2"/>
<rect x="3" y="2.2771" width="366.731" height="399.446" rx="10" stroke="white" stroke-width="4" stroke-linecap="square" stroke-dasharray="200 200"/>
</svg>
